<?xml version="1.0" standalone="no"?>
<!DOCTYPE svg PUBLIC "-//W3C//DTD SVG 20010904//EN"
 "http://www.w3.org/TR/2001/REC-SVG-20010904/DTD/svg10.dtd">
<svg version="1.0" xmlns="http://www.w3.org/2000/svg"
 width="1080.000000pt" height="1080.000000pt" viewBox="0 0 1080.000000 1080.000000"
 preserveAspectRatio="xMidYMid meet">
<metadata>
Created by potrace 1.11, written by Peter Selinger 2001-2013
</metadata>
<g transform="translate(0.000000,1080.000000) scale(0.100000,-0.100000)"
fill="#000000" stroke="none">
<path d="M1 10480 c0 -243 3 -320 12 -320 9 0 8 -3 -1 -9 -10 -6 -12 -171 -11
-854 1 -466 6 -847 10 -847 5 0 4 -12 -1 -26 -16 -40 -12 -1332 3 -1337 9 -3
9 -7 -1 -19 -10 -13 -12 -236 -10 -1117 1 -606 5 -1104 9 -1106 3 -3 4 -17 1
-32 -9 -46 -11 -717 -2 -728 5 -5 5 -30 0 -55 -6 -33 -4 -53 7 -77 8 -18 11
-37 7 -44 -4 -7 -7 -25 -6 -41 0 -15 -2 -26 -6 -24 -4 2 -8 -7 -8 -20 -1 -13
2 -24 7 -24 4 0 7 -18 6 -40 -1 -22 -5 -40 -10 -40 -4 0 -4 -7 1 -16 5 -9 6
-31 2 -48 -4 -17 -3 -40 1 -51 11 -29 11 -47 -1 -40 -5 3 -10 2 -10 -4 0 -5 4
-11 10 -13 15 -5 16 -168 1 -177 -8 -6 -9 -15 -2 -34 7 -18 7 -27 -2 -30 -9
-3 -8 -8 2 -21 10 -12 11 -20 4 -24 -7 -5 -10 -514 -11 -1635 l-1 -1627 1800
2 c1310 2 1802 6 1807 14 4 6 17 14 30 18 12 4 20 12 17 17 -4 5 0 9 9 9 8 0
17 6 19 13 4 9 6 9 6 0 1 -7 8 -13 16 -13 8 0 13 6 10 13 -2 6 18 29 44 49 49
37 49 37 70 17 25 -23 27 -17 5 16 -14 22 -14 24 8 36 13 7 37 27 54 46 17 18
36 33 42 33 6 0 18 14 27 30 14 28 28 34 65 32 20 -1 30 19 20 39 -7 11 -6 17
3 16 47 -1 65 5 70 23 5 21 -3 26 -18 11 -6 -5 -21 -12 -34 -16 -21 -6 -22 -5
-10 8 8 8 17 13 22 10 4 -2 25 14 47 37 22 23 40 37 40 31 0 -6 9 -11 20 -11
15 0 20 7 20 28 0 23 12 37 65 77 36 27 65 53 65 58 0 4 5 5 10 2 6 -3 10 4
10 16 0 16 5 20 20 16 11 -3 17 -1 14 4 -8 14 15 39 37 39 11 0 19 7 19 15 0
8 4 15 9 15 6 0 29 20 52 45 34 36 45 43 56 33 10 -8 11 -13 3 -18 -8 -5 -7
-9 4 -13 8 -3 22 -23 31 -43 11 -27 19 -35 32 -30 16 6 16 6 0 -12 -9 -10 -14
-22 -10 -26 5 -4 8 -11 9 -14 0 -4 4 -14 7 -22 8 -19 37 -102 40 -114 1 -5 -7
-14 -18 -20 -21 -11 -33 -56 -15 -56 6 0 10 -5 10 -11 0 -6 -9 -9 -20 -6 -14
3 -24 -1 -31 -15 -6 -11 -8 -22 -5 -26 3 -3 6 0 6 6 0 7 5 12 10 12 6 0 10
-13 10 -30 0 -22 4 -28 15 -24 8 4 15 1 15 -6 0 -6 -4 -8 -10 -5 -13 8 -13 -8
0 -21 8 -8 6 -15 -5 -24 -16 -13 -21 -31 -7 -29 4 1 18 1 32 0 l24 -1 -22 -16
c-26 -18 -28 -33 -8 -59 14 -19 15 -19 35 -1 20 18 58 16 46 -3 -3 -5 4 -12
15 -16 11 -3 20 -11 20 -17 0 -5 -7 -7 -16 -4 -9 3 -22 6 -30 6 -8 0 -11 6 -8
15 4 8 2 15 -4 15 -5 0 -10 -16 -10 -35 0 -38 18 -49 67 -43 13 2 26 -3 29
-11 3 -8 0 -11 -7 -7 -18 11 -13 -10 6 -25 11 -10 14 -10 9 -1 -5 8 1 12 19
12 23 0 24 -2 15 -20 -9 -16 -8 -22 5 -26 8 -3 13 -10 10 -15 -11 -17 33 -27
129 -28 72 -1 102 2 107 11 7 10 9 10 9 1 0 -10 583 -13 2845 -13 l2845 0 0
5400 0 5400 -5400 0 -5399 0 0 -320z m3913 -2785 c-3 -8 -15 -17 -27 -21 -12
-4 -27 -13 -35 -20 -16 -16 -28 -18 -37 -4 -3 5 13 15 36 21 22 7 43 19 46 26
3 7 9 13 14 13 4 0 6 -7 3 -15z m-384 -10 c-2 -11 28 -35 44 -35 9 0 16 -4 16
-10 0 -5 -7 -10 -16 -10 -8 0 -12 -5 -9 -11 5 -7 13 -5 24 5 22 20 37 21 21 1
-7 -8 -10 -15 -7 -15 10 0 62 30 52 31 -17 1 39 23 60 23 13 1 19 7 17 19 -2
10 3 17 13 17 8 0 15 -9 15 -20 0 -11 -7 -20 -15 -20 -8 0 -15 -4 -15 -9 0 -6
19 -11 43 -13 36 -3 42 -6 43 -25 1 -13 -3 -23 -7 -23 -5 0 -9 -7 -9 -15 0 -8
5 -15 10 -15 6 0 10 5 10 11 0 7 10 9 24 5 15 -4 30 0 39 8 8 8 26 18 41 22
23 5 25 4 19 -12 -7 -20 -33 -50 -33 -39 0 3 5 15 10 26 15 26 8 24 -28 -10
-25 -24 -28 -32 -17 -41 11 -9 10 -17 -8 -47 -15 -26 -17 -34 -6 -31 8 3 13
11 11 17 -1 6 4 11 12 11 8 0 17 9 21 19 8 25 39 36 62 21 16 -10 16 -10 -3
-8 -21 3 -26 -6 -16 -31 3 -8 0 -17 -6 -19 -7 -2 -12 -11 -12 -19 0 -11 -7
-14 -24 -9 -14 3 -28 2 -31 -4 -11 -17 -22 -11 -35 20 -12 29 -30 41 -30 20 0
-5 4 -10 8 -10 5 0 13 -15 19 -34 11 -36 7 -38 -50 -22 l-28 8 20 34 c11 19
16 34 11 34 -6 0 -10 -4 -10 -10 0 -5 -6 -10 -14 -10 -16 0 -29 -27 -20 -42 4
-6 -1 -17 -10 -24 -24 -17 -2 -28 24 -12 15 10 25 10 38 2 11 -7 26 -8 41 -2
16 5 27 5 31 -2 4 -6 15 -8 25 -4 14 6 16 4 10 -6 -5 -9 -4 -11 3 -6 18 11 38
-4 21 -15 -23 -15 11 -30 54 -25 20 2 35 0 31 -5 -3 -5 -12 -9 -20 -9 -8 0
-14 -4 -14 -10 0 -5 5 -10 11 -10 5 0 7 -4 4 -10 -3 -5 -2 -10 4 -10 5 0 11 6
14 13 2 6 8 9 12 5 4 -4 3 -14 -4 -22 -9 -11 -7 -18 14 -34 21 -17 22 -21 9
-26 -13 -5 -14 -9 -4 -21 7 -9 10 -18 6 -22 -3 -3 -6 -1 -6 5 0 6 -12 12 -27
14 -24 3 -25 4 -11 18 14 15 13 19 -8 43 -13 15 -28 27 -34 27 -6 0 -8 4 -5
10 3 6 -1 7 -9 4 -22 -8 -20 -21 4 -29 11 -3 20 -11 20 -16 0 -5 7 -9 15 -9
20 0 19 -16 -1 -24 -10 -4 -13 -13 -9 -26 8 -26 -7 -26 -24 1 -11 18 -11 23 1
31 10 7 8 8 -6 6 -31 -5 -29 -24 5 -59 18 -18 28 -34 22 -36 -6 -2 -18 -9 -27
-16 -15 -11 -12 -13 23 -13 23 1 41 4 41 8 0 4 7 5 15 2 21 -9 19 6 -7 33 -12
13 -18 26 -14 30 3 4 13 -3 22 -15 12 -18 19 -20 35 -12 27 15 24 0 -6 -29
-14 -13 -25 -28 -25 -33 0 -6 -11 -8 -24 -4 -20 5 -25 1 -28 -19 -6 -28 1 -32
21 -12 10 10 11 6 5 -18 -7 -27 -6 -29 10 -16 18 16 36 7 19 -10 -6 -6 -8 -20
-5 -31 4 -15 11 -19 32 -16 23 4 26 1 22 -16 -3 -12 -14 -27 -24 -34 -10 -7
-18 -20 -18 -28 0 -8 -7 -14 -15 -14 -8 0 -15 -4 -15 -10 0 -12 2 -12 35 0 24
9 25 8 15 -11 -9 -15 -8 -24 1 -35 15 -19 4 -31 -15 -15 -12 10 -16 8 -21 -8
-3 -12 -3 -26 0 -31 4 -6 1 -17 -5 -25 -13 -16 -5 -35 15 -35 10 0 11 -5 2
-25 -14 -29 -27 -33 -27 -8 0 15 -1 15 -12 2 -7 -9 -25 -23 -40 -32 -24 -15
-28 -15 -43 -1 -20 21 -9 37 21 30 13 -4 24 -2 24 3 0 22 -44 19 -77 -6 -29
-23 -37 -24 -60 -14 -22 10 -25 9 -20 -4 5 -10 0 -15 -13 -15 -10 0 -22 -4
-25 -10 -8 -12 -55 -13 -55 -1 0 5 -12 9 -27 9 -15 0 -29 5 -31 11 -2 6 -8 11
-14 11 -6 0 -3 -9 7 -20 25 -28 10 -38 -18 -13 -29 27 -106 37 -149 19 -20 -8
-41 -10 -53 -5 -20 7 -20 8 1 8 11 1 29 8 40 17 18 14 16 15 -27 9 -35 -4 -57
0 -100 18 -32 14 -68 22 -89 21 -64 -6 -125 -20 -159 -38 -33 -18 -81 -15 -81
4 0 5 7 7 15 4 8 -4 35 3 60 15 25 12 53 21 63 21 10 0 24 6 30 12 7 7 18 13
25 14 7 0 22 2 35 2 14 1 21 6 16 13 -6 11 -35 8 -83 -7 -20 -6 -23 -4 -18 9
4 10 2 17 -3 17 -6 0 -10 -6 -10 -14 0 -17 -47 -49 -55 -37 -3 5 4 12 15 16
20 6 28 25 10 25 -15 0 -60 -23 -60 -31 0 -4 5 -10 10 -12 6 -3 5 -4 -2 -3 -7
2 -23 -1 -36 -5 -14 -6 -31 -5 -43 1 -13 7 -19 7 -19 0 0 -5 5 -10 10 -10 6 0
10 -6 10 -14 0 -15 -21 -26 -50 -26 -10 0 -20 -5 -22 -12 -2 -6 -10 -8 -17 -4
-9 6 -8 11 6 21 10 7 15 17 11 21 -4 4 -14 1 -23 -6 -13 -11 -15 -9 -15 13 0
20 4 24 20 20 23 -6 26 2 8 22 -33 37 -39 46 -33 56 4 5 1 16 -5 24 -9 11 -9
17 2 29 11 12 16 11 37 -7 l24 -22 -7 35 c-3 18 -11 37 -18 41 -6 4 -8 14 -5
22 3 8 -6 26 -20 41 -19 21 -22 30 -14 40 16 19 17 82 1 101 -8 10 -9 15 -1
15 6 0 11 -4 11 -9 0 -5 11 -4 25 2 32 15 32 31 0 23 -19 -5 -23 -3 -19 9 4 8
11 15 18 15 6 0 17 9 24 21 12 19 11 20 -9 14 -16 -5 -21 -4 -17 6 17 45 20
61 9 55 -6 -4 -11 -3 -11 2 0 16 31 72 40 72 5 0 11 10 13 23 3 14 5 9 6 -15
0 -20 4 -43 7 -52 9 -24 26 -19 19 5 -5 16 -3 20 6 17 10 -4 13 -20 11 -56 -2
-43 1 -53 18 -62 11 -6 20 -21 20 -34 0 -13 10 -31 21 -42 l22 -19 -7 29 c-6
24 -4 28 10 22 15 -6 15 -5 0 19 -20 30 -13 32 15 4 31 -31 37 -13 6 19 -15
16 -27 37 -26 48 0 14 2 15 6 4 3 -8 12 -23 21 -32 17 -21 48 -25 35 -5 -4 6
-8 24 -9 39 -1 19 2 25 12 21 10 -3 12 0 8 10 -3 9 4 25 15 36 12 12 21 33 22
49 0 21 2 23 7 9 6 -15 10 -13 26 13 11 19 23 29 32 26 8 -3 20 6 30 25 15 30
15 31 -8 24 l-23 -7 22 16 c12 9 27 31 33 50 8 27 15 33 30 29 22 -6 26 7 8
25 -19 19 -2 25 20 6 11 -9 18 -23 15 -30 -3 -8 0 -14 6 -14 6 0 11 4 11 9 0
5 10 11 23 15 18 5 19 8 7 16 -16 10 -22 60 -7 60 6 0 16 8 24 18 13 15 13 14
8 -14 -7 -37 17 -54 41 -29 14 13 13 15 -3 16 -14 0 -15 2 -3 6 8 4 20 12 28
19 7 7 19 11 27 8 21 -8 19 3 -5 28 -10 12 -17 25 -14 30 6 10 17 5 14 -7z
m128 -3 c8 -6 2 -9 -18 -9 -20 0 -26 3 -18 9 7 4 15 8 18 8 3 0 11 -4 18 -8z
m135 -12 c-3 -11 -9 -20 -14 -20 -10 0 -12 24 -2 33 13 13 21 7 16 -13z m-296
-12 c-4 -24 -22 -35 -32 -19 -3 6 -1 11 4 11 6 0 11 7 11 15 0 8 4 15 10 15 5
0 8 -10 7 -22z m534 -11 c-16 -16 -26 0 -10 19 9 11 15 12 17 4 2 -6 -1 -17
-7 -23z m39 7 c0 -8 -5 -12 -10 -9 -6 4 -8 11 -5 16 9 14 15 11 15 -7z m-173
-20 c-3 -3 -12 -4 -19 -1 -8 3 -5 6 6 6 11 1 17 -2 13 -5z m-27 -42 c-7 -3
-16 0 -18 7 -2 6 -9 8 -14 5 -7 -4 -8 -2 -4 4 5 9 13 9 29 0 17 -8 18 -13 7
-16z m-490 -2 c0 -5 -2 -10 -4 -10 -3 0 -8 5 -11 10 -3 6 -1 10 4 10 6 0 11
-4 11 -10z m631 -13 c-1 -12 -15 -9 -19 4 -3 6 1 10 8 8 6 -3 11 -8 11 -12z
m-27 -23 c9 -3 16 -14 15 -23 0 -10 -2 -11 -6 -3 -2 6 -18 12 -34 12 -18 0
-28 4 -24 10 7 11 26 13 49 4z m6 -64 c0 -5 -4 -10 -10 -10 -5 0 -10 5 -10 10
0 6 5 10 10 10 6 0 10 -4 10 -10z m67 -36 c-3 -3 -12 -4 -19 -1 -8 3 -5 6 6 6
11 1 17 -2 13 -5z m-87 -24 c0 -5 -7 -10 -16 -10 -8 0 -12 5 -9 10 3 6 10 10
16 10 5 0 9 -4 9 -10z m-76 -25 c-7 -16 -24 -21 -24 -6 0 8 7 13 27 20 1 1 0
-6 -3 -14z m36 1 c0 -3 -4 -8 -10 -11 -5 -3 -10 -1 -10 4 0 6 5 11 10 11 6 0
10 -2 10 -4z m66 -13 c17 -22 18 -37 2 -27 -7 5 -9 2 -5 -9 6 -15 -17 -32 -33
-22 -12 7 -19 45 -9 45 5 0 9 -6 9 -12 0 -9 3 -9 9 1 5 8 7 20 4 28 -7 19 7
16 23 -4z m-886 -53 c0 -13 -7 -20 -20 -20 -13 0 -20 6 -19 18 0 10 3 12 6 5
2 -7 9 -13 15 -13 6 0 8 7 4 15 -3 8 -1 15 4 15 6 0 10 -9 10 -20z m1020 -29
c0 -6 -4 -13 -10 -16 -5 -3 -10 1 -10 9 0 9 5 16 10 16 6 0 10 -4 10 -9z m-20
-39 c-26 -4 -50 4 -50 16 0 5 16 4 36 -2 28 -9 31 -12 14 -14z m-1010 8 c0 -5
-4 -10 -10 -10 -5 0 -10 5 -10 10 0 6 5 10 10 10 6 0 10 -4 10 -10z m968 -31
c12 -19 11 -19 -8 -9 -11 6 -20 15 -20 20 0 17 15 11 28 -11z m117 11 c3 -5 2
-10 -4 -10 -5 0 -13 5 -16 10 -3 6 -2 10 4 10 5 0 13 -4 16 -10z m-40 -20 c4
-6 11 -7 17 -4 7 4 8 2 4 -4 -10 -17 -33 -15 -40 3 -6 17 9 21 19 5z m-45 -20
c0 -5 -5 -10 -11 -10 -5 0 -7 5 -4 10 3 6 8 10 11 10 2 0 4 -4 4 -10z m30 -40
c0 -5 -4 -10 -9 -10 -5 0 -18 -3 -28 -6 -16 -5 -16 -4 1 10 23 18 36 20 36 6z
m-25 -50 c3 -5 1 -10 -4 -10 -6 0 -11 5 -11 10 0 6 2 10 4 10 3 0 8 -4 11 -10z
m-18 -51 c0 -21 -3 -26 -9 -16 -4 9 -5 22 -2 31 9 23 11 20 11 -15z m-1227
-58 c0 -6 -4 -13 -10 -16 -5 -3 -10 1 -10 9 0 9 5 16 10 16 6 0 10 -4 10 -9z
m1228 -35 c-7 -8 -15 -12 -17 -11 -5 6 10 25 20 25 5 0 4 -6 -3 -14z m22 -66
c-7 -14 -7 -20 0 -20 5 0 10 -5 10 -11 0 -6 -7 -8 -17 -5 -9 4 -20 1 -24 -6
-4 -7 -11 -9 -16 -4 -4 4 0 12 10 17 9 6 17 19 17 29 0 11 7 20 15 20 13 0 14
-4 5 -20z m45 -25 c19 -8 19 -8 1 -13 -10 -2 -22 2 -27 10 -11 16 -12 38 -1
22 4 -6 16 -14 27 -19z m35 15 c0 -5 -7 -7 -15 -4 -8 4 -15 8 -15 10 0 2 7 4
15 4 8 0 15 -4 15 -10z m-1313 -35 c-4 -8 -11 -15 -17 -15 -6 0 -6 7 2 20 14
22 24 19 15 -5z m1283 -25 c0 -5 -4 -10 -9 -10 -6 0 -13 5 -16 10 -3 6 1 10 9
10 9 0 16 -4 16 -10z m-105 -90 c4 -6 11 -8 16 -5 16 11 10 -4 -12 -26 -23
-23 -39 -18 -19 6 8 10 9 15 1 15 -6 0 -11 5 -11 10 0 13 17 13 25 0z m70 0
c3 -5 1 -10 -4 -10 -6 0 -11 5 -11 10 0 6 2 10 4 10 3 0 8 -4 11 -10z m-25
-55 c0 -8 -7 -15 -15 -15 -26 0 -18 20 13 29 1 1 2 -6 2 -14z m-835 -34 c-27
-11 -85 -22 -85 -16 0 6 61 23 85 23 l20 1 -20 -8z m965 5 c0 -3 -4 -8 -10
-11 -5 -3 -10 -1 -10 4 0 6 5 11 10 11 6 0 10 -2 10 -4z m-145 -26 c3 -5 2
-10 -4 -10 -5 0 -18 -3 -28 -7 -16 -6 -16 -5 -4 10 15 19 27 22 36 7z m-1150
-26 c-34 -26 -55 -36 -55 -25 0 10 46 38 65 40 6 0 1 -7 -10 -15z m205 6 c-20
-13 -33 -13 -25 0 3 6 14 10 23 10 15 0 15 -2 2 -10z m877 -8 c14 11 15 11 12
-1 -7 -19 -20 -23 -38 -12 -8 6 -10 14 -5 22 7 11 9 10 12 -4 3 -15 6 -16 19
-5z m-479 -9 c-10 -2 -18 -9 -18 -14 0 -6 -5 -7 -11 -3 -14 8 8 24 31 23 11
-1 10 -3 -2 -6z m426 -12 c3 -5 -1 -11 -9 -14 -9 -4 -12 -1 -8 9 6 16 10 17
17 5z m63 -27 c-3 -3 -12 -4 -19 -1 -8 3 -5 6 6 6 11 1 17 -2 13 -5z m-1291
-134 c5 3 11 -6 12 -19 3 -15 -1 -22 -9 -19 -17 6 -50 69 -42 81 3 5 11 -3 18
-19 6 -16 16 -27 21 -24z m-36 -20 c0 -5 -4 -10 -10 -10 -5 0 -10 5 -10 10 0
6 5 10 10 10 6 0 10 -4 10 -10z m30 -30 c0 -5 -4 -10 -10 -10 -5 0 -10 5 -10
10 0 6 5 10 10 10 6 0 10 -4 10 -10z m38 -40 c-16 -38 -28 -38 -28 0 0 17 7
33 18 39 23 13 27 -2 10 -39z m453 0 c-12 -7 -12 -11 -2 -24 8 -9 18 -16 23
-16 6 0 5 7 -2 15 -15 18 -7 19 23 4 l22 -12 -20 23 -20 23 25 -13 c14 -7 33
-19 42 -27 28 -25 44 -10 17 16 l-24 23 42 -21 c38 -19 42 -19 48 -3 6 15 8
15 18 2 7 -8 18 -15 25 -16 59 -5 66 -6 48 -11 -18 -5 -18 -6 4 -18 17 -9 30
-10 42 -4 14 8 18 6 18 -7 0 -10 5 -14 15 -11 8 4 17 2 20 -4 4 -5 11 -6 17
-3 7 5 9 0 6 -14 -4 -12 -2 -22 4 -22 15 0 -2 -43 -28 -68 -13 -12 -27 -21
-31 -20 -4 1 -28 -2 -53 -7 -25 -4 -72 -9 -105 -10 -33 -1 -69 -5 -80 -10 -17
-7 -18 -6 -8 6 9 12 5 14 -23 15 -24 0 -33 -3 -30 -12 3 -7 -6 -14 -20 -17
-27 -5 -31 2 -11 22 10 10 9 11 -5 6 -10 -4 -18 -13 -18 -20 0 -16 -42 -28
-51 -14 -5 8 -8 8 -13 1 -4 -6 -12 -10 -19 -8 -7 1 -9 1 -4 -1 13 -8 8 -23 -8
-23 -8 0 -15 5 -15 11 0 8 -5 7 -16 -2 -10 -9 -18 -9 -22 -2 -4 6 -19 9 -34 7
-19 -2 -28 2 -28 12 0 8 5 14 11 14 6 0 22 9 36 20 14 11 21 20 14 20 -18 0
-26 -4 -23 -12 1 -5 -8 -8 -21 -8 -13 0 -28 -5 -35 -12 -8 -8 -12 -9 -12 -1 0
6 5 13 11 15 19 6 -3 38 -27 38 -13 0 -24 5 -24 11 0 7 10 9 25 5 28 -7 31 3
14 36 -10 18 -9 20 6 14 10 -3 25 -1 34 6 13 10 12 8 -1 -8 -21 -24 -23 -37
-6 -32 7 3 20 -5 29 -16 17 -20 17 -20 13 12 -2 20 0 31 6 27 6 -3 10 1 10 9
0 9 6 16 14 16 21 0 40 26 25 35 -8 6 -7 10 2 16 22 14 42 11 35 -6 -7 -19 8
-20 23 -1 10 11 8 17 -9 29 -18 12 -19 15 -5 21 10 3 27 -5 45 -24 31 -32 40
-29 15 4 -18 23 -14 31 17 33 17 2 19 0 9 -7z m-276 -10 c3 -5 1 -10 -4 -10
-6 0 -11 5 -11 10 0 6 2 10 4 10 3 0 8 -4 11 -10z m55 -50 c0 -5 -7 -10 -15
-10 -8 0 -15 5 -15 10 0 6 7 10 15 10 8 0 15 -4 15 -10z m70 -20 c0 -5 -2 -10
-4 -10 -3 0 -8 5 -11 10 -3 6 -1 10 4 10 6 0 11 -4 11 -10z m-420 -10 c0 -5
-2 -10 -4 -10 -3 0 -8 5 -11 10 -3 6 -1 10 4 10 6 0 11 -4 11 -10z m387 4 c-3
-3 -12 -4 -19 -1 -8 3 -5 6 6 6 11 1 17 -2 13 -5z m618 -43 c3 -5 1 -12 -5
-16 -5 -3 -10 1 -10 9 0 18 6 21 15 7z m-1013 -23 c-7 -7 -12 -8 -12 -2 0 14
12 26 19 19 2 -3 -1 -11 -7 -17z m258 -44 c-15 -38 -13 -77 3 -71 8 3 20 1 28
-4 11 -8 9 -9 -6 -7 -28 4 -26 -24 3 -37 19 -9 21 -15 16 -49 -6 -41 -29 -69
-51 -61 -19 6 -16 -1 10 -29 17 -18 27 -22 34 -15 12 12 33 4 33 -10 0 -5 -10
-12 -22 -15 -22 -7 -22 -7 -3 -15 11 -5 25 -6 31 -4 6 2 11 -4 11 -14 -1 -65
3 -74 24 -68 19 7 21 4 17 -24 -4 -24 -1 -31 9 -27 8 4 11 1 8 -5 -4 -6 1 -19
11 -30 11 -12 13 -19 5 -19 -8 0 -10 -7 -5 -22 4 -13 7 -32 6 -43 -1 -11 8
-31 18 -45 l20 -25 -6 30 c-3 18 0 37 8 48 11 15 13 11 11 -34 -1 -53 0 -54
47 -35 22 9 47 -33 28 -46 -9 -6 -6 -7 10 -3 15 4 24 1 28 -9 3 -9 13 -16 20
-16 8 0 17 -7 20 -15 4 -8 10 -12 15 -9 5 3 7 9 5 13 -3 3 4 7 15 7 13 0 18
-5 14 -15 -4 -10 -2 -11 7 -4 7 6 22 9 33 6 53 -10 85 -10 79 -1 -4 6 -1 8 7
6 8 -3 22 -1 33 4 12 7 22 6 28 0 7 -7 19 -7 35 -1 16 6 31 5 45 -2 11 -6 22
-8 26 -5 3 3 0 6 -7 6 -7 0 -9 5 -5 11 3 6 10 7 15 2 11 -11 79 -4 79 8 0 5 7
9 15 9 18 0 18 -5 5 -31 -6 -10 -17 -19 -26 -19 -11 0 -13 -7 -8 -27 7 -26 6
-27 -9 -11 -9 9 -17 22 -17 28 0 6 -8 10 -17 8 -12 -2 -18 -13 -18 -28 0 -15
-6 -25 -15 -25 -8 -1 -14 -6 -13 -13 3 -12 -8 -16 -40 -13 -9 1 -20 -5 -23
-14 -4 -10 -10 -12 -18 -6 -7 6 -20 3 -36 -9 l-25 -20 23 0 c12 0 22 -4 22 -9
0 -16 -20 -23 -34 -12 -7 6 -17 7 -21 3 -5 -4 -6 0 -2 10 3 9 3 19 0 22 -9 9
-44 -25 -37 -35 3 -5 -2 -9 -10 -9 -12 0 -14 5 -6 25 8 21 7 25 -10 25 -16 0
-19 -5 -16 -24 3 -18 0 -23 -12 -21 -11 1 -16 10 -15 26 2 14 0 18 -4 9 -9
-22 -25 -30 -47 -24 -16 5 -17 4 -5 -8 7 -8 21 -13 29 -11 9 2 27 -5 41 -16
20 -18 21 -20 4 -14 -11 3 -23 11 -27 17 -5 7 -11 7 -20 -2 -10 -10 -10 -15 2
-22 8 -5 11 -10 6 -10 -5 0 -1 -9 9 -20 17 -18 17 -21 1 -45 -9 -14 -12 -25
-6 -25 5 0 10 5 10 10 0 6 5 10 11 10 7 0 9 -9 6 -21 -5 -17 -2 -20 14 -16 13
3 19 1 16 -6 -2 -7 -13 -13 -25 -15 -12 -2 -22 -7 -22 -12 0 -6 10 -6 25 0 25
9 42 -1 31 -19 -6 -10 24 -25 32 -16 3 3 -1 5 -9 6 -8 0 -3 5 10 10 18 7 26 6
36 -8 11 -15 14 -15 35 5 20 18 21 22 7 22 -9 0 -17 5 -17 10 0 13 11 12 33
-4 21 -16 22 -26 2 -26 -8 0 -15 -4 -15 -10 0 -5 4 -10 9 -10 6 0 13 5 16 10
3 6 13 10 22 10 14 0 14 -3 -2 -20 -16 -18 -16 -20 -2 -20 10 0 17 7 17 16 0
12 7 15 24 12 17 -3 23 -1 19 8 -2 7 -11 10 -19 7 -9 -3 -14 1 -14 12 0 11 5
15 15 11 11 -4 15 1 15 17 0 17 2 19 9 8 5 -8 6 -21 3 -30 -5 -13 -3 -13 12 2
9 9 24 17 32 17 8 0 14 7 14 15 0 12 4 13 19 5 28 -14 34 -13 29 8 -3 11 2 23
13 30 30 19 44 14 24 -8 -18 -19 -17 -20 2 -20 11 0 26 7 33 15 9 10 9 15 1
15 -6 0 -11 4 -11 10 0 5 7 7 15 3 9 -3 15 -2 14 3 -3 20 2 34 12 34 5 0 8 -4
4 -9 -3 -5 -1 -12 4 -15 11 -7 24 22 16 35 -3 4 2 20 11 34 12 19 22 24 38 20
16 -5 17 -4 7 4 -22 15 -21 51 1 51 10 0 18 6 18 13 0 8 11 24 24 36 14 13 22
29 20 35 -6 14 51 67 61 58 4 -4 2 3 -4 16 -10 18 -9 22 3 22 7 0 17 12 20 26
5 17 12 24 22 20 11 -4 13 0 8 19 -4 18 -1 27 10 31 10 4 14 13 12 23 -5 14
24 61 37 61 3 0 2 -13 -3 -29 -6 -21 -4 -35 6 -48 9 -12 12 -13 9 -3 -3 10 7
21 28 31 17 9 34 24 35 34 3 12 0 15 -9 10 -8 -5 -10 -4 -5 3 4 7 15 12 24 12
10 0 13 3 6 8 -19 13 -10 66 14 85 25 21 29 39 7 30 -13 -4 -15 0 -11 21 9 50
17 66 34 67 14 0 15 2 2 7 -8 4 -15 17 -16 30 l-1 22 22 -20 c12 -11 28 -20
36 -20 21 0 38 20 32 36 -3 8 0 14 6 14 6 0 11 -7 11 -15 0 -8 5 -15 10 -15 6
0 10 -4 10 -10 0 -5 -10 -10 -22 -10 -13 0 -30 -4 -38 -10 -12 -8 -12 -10 4
-16 11 -4 21 -2 26 6 8 13 67 17 78 5 8 -8 -20 -25 -30 -19 -4 3 -8 1 -8 -5 0
-5 6 -11 13 -14 9 -3 9 -8 -2 -21 -12 -14 -12 -19 -2 -26 8 -4 10 -13 7 -19
-4 -6 0 -14 8 -17 9 -3 16 -12 16 -19 0 -7 10 -25 22 -40 14 -19 18 -30 11
-32 -7 -3 -9 -11 -6 -19 3 -8 0 -14 -7 -14 -6 0 -18 -7 -27 -15 -14 -14 -14
-18 1 -34 9 -10 16 -27 16 -39 0 -11 4 -23 9 -26 16 -10 9 -53 -11 -65 -15
-10 -23 -10 -36 0 -14 11 -15 11 -4 -1 6 -8 12 -23 13 -34 0 -12 3 -15 6 -8 2
6 9 10 14 7 5 -4 -1 -19 -12 -34 -17 -23 -19 -33 -10 -49 6 -11 11 -33 11 -48
0 -26 0 -27 -20 -9 -11 10 -23 15 -27 12 -3 -4 -1 -7 5 -7 7 0 12 -7 12 -15 0
-8 7 -15 15 -15 20 0 19 -10 -2 -26 -12 -9 -14 -13 -5 -14 7 0 10 -5 7 -10 -4
-6 -11 -7 -17 -4 -8 5 -9 -3 -5 -23 4 -19 1 -38 -8 -50 -11 -16 -12 -29 -4
-58 11 -39 4 -60 -11 -35 -5 8 -12 11 -16 7 -4 -3 -1 -13 6 -22 10 -12 10 -18
0 -30 -7 -8 -8 -15 -3 -15 12 0 9 -87 -4 -120 l-10 -25 -7 23 c-7 22 -9 21
-27 -14 -22 -44 -18 -55 11 -29 16 14 20 15 20 4 0 -8 -10 -23 -21 -33 -16
-13 -18 -21 -10 -29 18 -18 13 -37 -11 -48 l-23 -10 22 5 c34 6 37 -10 6 -34
-23 -18 -25 -24 -15 -40 16 -27 15 -41 -3 -34 -11 5 -13 2 -9 -10 11 -28 -25
-87 -59 -99 -18 -6 -36 -10 -40 -9 -5 1 -6 -2 -2 -8 3 -5 18 -7 33 -4 l27 6
-30 -21 c-27 -19 -30 -19 -36 -4 -4 12 -8 13 -13 5 -4 -7 -4 -17 -1 -23 4 -6
-2 -13 -14 -16 -11 -3 -18 -10 -15 -15 8 -12 -16 -29 -28 -21 -5 2 -6 14 -2
26 6 19 5 20 -9 9 -19 -16 -27 -5 -23 31 3 21 -1 27 -16 27 -14 0 -18 5 -14
15 8 21 -3 45 -21 45 -8 0 -11 -4 -8 -10 3 -5 -1 -10 -9 -10 -15 0 -21 14 -16
35 2 6 4 19 6 30 1 11 3 20 4 20 1 0 3 10 6 23 3 18 0 23 -13 20 -10 -1 -24 1
-30 5 -14 9 -57 -16 -46 -26 3 -4 -6 -7 -22 -7 -23 0 -26 2 -15 15 14 16 10
18 -14 9 -9 -3 -16 -15 -16 -26 0 -16 6 -19 35 -16 19 2 34 -1 35 -7 0 -13
-52 -15 -67 -3 -7 6 -21 7 -30 3 -16 -6 -15 -8 7 -18 20 -8 22 -11 8 -14 -9
-2 -15 -10 -12 -16 2 -7 -4 -22 -14 -33 -10 -10 -16 -26 -14 -33 3 -9 0 -11
-8 -6 -9 5 -11 4 -6 -3 10 -16 47 -14 70 3 25 19 12 33 -14 17 -12 -7 -20 -8
-20 -2 0 5 5 10 10 10 6 0 10 12 11 28 l0 27 16 -22 c16 -23 43 -31 43 -13 0
5 6 7 14 4 8 -3 12 -12 9 -20 -3 -9 1 -14 12 -14 11 0 15 5 12 15 -4 8 -2 17
3 20 13 8 13 -22 -1 -46 -6 -12 -8 -28 -4 -36 5 -14 7 -14 20 3 14 18 14 18
15 1 0 -14 5 -17 22 -11 20 6 21 5 10 -9 -8 -9 -9 -18 -3 -21 5 -3 19 -26 31
-51 12 -25 26 -45 30 -45 5 0 24 -21 41 -47 18 -27 40 -53 48 -60 11 -8 12
-12 4 -13 -7 0 -13 -4 -13 -10 0 -5 6 -10 13 -11 15 0 63 -59 48 -59 -5 0 -14
7 -18 15 -6 10 -13 11 -23 5 -9 -6 -10 -10 -3 -10 6 0 13 -10 15 -22 2 -18 9
-22 28 -21 24 2 23 2 -5 -12 -33 -16 -33 -16 13 -20 24 -2 32 1 33 14 0 11 2
12 6 3 7 -17 -17 -44 -34 -38 -15 6 -18 -20 -3 -29 6 -3 10 -1 10 5 0 6 5 8
10 5 6 -3 10 -17 10 -31 0 -14 4 -23 9 -20 17 11 17 -41 0 -74 -22 -41 -10
-122 13 -89 6 10 7 7 3 -9 -5 -17 -1 -24 17 -31 13 -4 28 -6 34 -4 14 5 28
-13 16 -21 -5 -3 -41 4 -81 16 -54 17 -68 24 -54 30 24 10 -116 -2 -144 -13
-12 -4 -24 -17 -28 -28 -5 -18 -28 -27 -57 -22 -4 0 -12 -8 -18 -19 -7 -13
-21 -20 -40 -20 -17 0 -30 -4 -30 -10 0 -5 -8 -10 -19 -10 -10 0 -25 -10 -33
-21 -13 -20 -15 -20 -30 -5 -10 10 -19 12 -23 6 -9 -15 -25 -12 -25 4 0 12
-27 15 -57 7 -8 -2 -18 5 -16 11 1 3 -3 8 -10 11 -10 4 -12 -4 -9 -25 3 -21 1
-29 -7 -24 -6 4 -11 14 -11 22 0 8 -7 17 -15 20 -8 4 -13 10 -10 14 3 5 0 12
-6 16 -8 4 -9 3 -5 -4 4 -7 2 -12 -5 -12 -7 0 -2 -8 9 -19 25 -21 29 -46 7
-54 -17 -7 -29 8 -19 25 4 6 3 8 -3 5 -14 -9 -24 -47 -12 -47 5 0 9 -7 9 -15
0 -8 -9 -15 -20 -15 -12 0 -21 -7 -22 -17 0 -10 -2 -22 -3 -28 -2 -5 -3 -17
-4 -27 -1 -11 -7 -15 -21 -11 -12 3 -20 0 -20 -7 0 -7 -8 -9 -20 -5 -11 4 -20
2 -20 -4 0 -6 8 -11 18 -11 16 -1 16 -1 -1 -11 -9 -6 -15 -15 -11 -20 4 -6 13
-4 25 7 13 12 19 13 19 4 0 -7 -7 -18 -16 -25 -15 -10 -14 -15 5 -55 22 -45
21 -61 -2 -42 -10 9 -17 5 -30 -17 -9 -16 -14 -36 -11 -45 8 -20 -3 -21 -22
-2 -19 19 -18 40 1 32 20 -7 19 4 -2 20 -40 30 -50 15 -28 -38 4 -11 3 -18 -4
-18 -6 0 -11 9 -11 20 0 12 -7 20 -16 20 -14 0 -14 -3 -4 -15 10 -12 9 -15 -4
-15 -10 0 -23 -14 -31 -32 -8 -18 -14 -27 -15 -20 0 6 -7 12 -15 12 -18 0 -18
-1 -4 39 9 24 16 31 30 28 16 -4 49 19 38 26 -2 1 -13 9 -23 17 -18 14 -18 13
-11 -10 7 -22 6 -23 -7 -12 -13 10 -16 9 -21 -8 -6 -22 -47 -29 -47 -7 0 6 -6
24 -14 38 -9 18 -10 26 -2 26 35 -1 56 4 56 13 0 6 -16 10 -35 10 -42 0 -81
30 -71 55 4 10 12 15 21 11 8 -3 22 -9 31 -13 12 -4 15 -2 12 8 -3 8 -13 13
-22 13 -9 -1 -16 5 -16 13 0 9 8 13 22 11 16 -2 24 3 26 17 3 16 1 18 -9 8
-20 -19 -31 -16 -27 9 2 11 -3 23 -11 26 -11 4 -12 -2 -7 -24 5 -21 4 -25 -3
-14 -6 8 -13 11 -17 7 -4 -3 -1 -14 6 -22 10 -12 10 -19 2 -27 -9 -9 -12 -9
-12 1 0 7 -7 10 -17 7 -22 -7 -48 8 -39 22 3 6 0 17 -8 25 -12 12 -11 18 12
42 17 18 22 30 14 33 -7 2 -12 12 -12 22 0 10 -4 22 -10 25 -14 9 -13 -28 2
-43 8 -8 8 -15 -2 -27 -7 -8 -17 -15 -22 -15 -16 0 -40 30 -35 43 6 15 -12 41
-33 50 -11 4 -10 6 5 6 16 1 14 5 -13 21 -30 18 -32 22 -18 36 9 8 16 18 16
22 -1 14 -28 42 -41 42 -10 1 -9 4 4 11 21 12 22 29 2 29 -13 0 -20 18 -16 43
0 4 -4 7 -10 7 -5 0 -7 5 -4 10 4 6 11 7 17 4 7 -5 8 -2 2 7 -5 8 -9 19 -9 24
-2 25 -19 71 -28 77 -8 4 -8 14 0 30 5 13 7 30 3 38 -4 8 -12 34 -17 57 -8 33
-7 40 4 36 7 -3 13 0 13 6 0 6 -4 11 -9 11 -18 0 -29 83 -14 106 11 17 11 26
-1 50 -8 16 -13 45 -11 64 1 19 -3 38 -9 42 -8 6 -7 8 2 8 17 0 15 27 -3 34
-10 3 -15 -1 -15 -12 -1 -15 -2 -15 -16 3 -8 11 -12 25 -10 32 7 18 -9 16 -28
-3 -15 -14 -16 -14 -16 5 0 12 -6 21 -15 21 -14 0 -50 34 -120 114 -33 38 -34
43 -41 166 -7 143 -6 262 4 345 6 44 11 87 11 95 9 201 -4 486 -24 533 -4 10
-2 24 5 32 11 13 10 18 -5 29 -12 8 -18 28 -20 59 -2 57 7 76 28 58 11 -8 17
-9 22 -1 10 16 25 2 18 -18 -4 -9 -14 -23 -22 -30 -14 -11 -13 -12 6 -7 20 6
23 3 21 -22 -1 -15 -8 -36 -17 -46 -13 -16 -13 -19 -1 -27 13 -8 13 -10 0 -10
-9 0 -16 -9 -17 -21 -2 -17 1 -18 13 -9 11 10 14 9 15 -6 1 -11 0 -25 -1 -33
-1 -9 4 -12 14 -8 9 4 16 2 16 -4 0 -5 -10 -14 -22 -18 -21 -8 -21 -10 -5 -16
11 -5 16 -14 12 -23 -3 -8 0 -21 6 -28 8 -10 8 -14 0 -14 -6 0 -11 -4 -11 -10
0 -5 7 -10 15 -10 9 0 12 -6 9 -15 -8 -19 -5 -19 35 1 29 15 34 34 8 34 -7 0
-18 4 -26 9 -12 8 -12 12 -2 25 8 9 18 16 23 16 6 0 5 -7 -2 -15 -10 -13 -9
-15 8 -15 15 0 22 9 27 30 4 16 4 33 1 38 -3 5 1 20 8 34 9 18 11 29 4 36 -7
7 -5 18 6 33 9 13 16 34 16 46 0 13 5 23 11 23 6 0 8 8 4 19 -3 11 -1 22 5 26
6 3 8 10 5 15 -3 5 -1 18 5 29 5 11 17 53 25 93 24 111 35 148 45 148 6 0 6
-10 0 -26z m-260 1 c0 -8 -4 -15 -10 -15 -5 0 -10 7 -10 15 0 8 5 15 10 15 6
0 10 -7 10 -15z m16 -83 c-10 -9 -36 14 -36 32 0 20 1 20 20 -4 10 -14 17 -26
16 -28z m279 38 c-3 -5 -11 -10 -16 -10 -6 0 -7 5 -4 10 3 6 11 10 16 10 6 0
7 -4 4 -10z m-291 -99 c8 -51 0 -70 -25 -64 -16 5 -18 11 -13 42 12 75 28 84
38 22z m865 -37 c-13 -16 -35 -18 -44 -4 -11 17 3 28 30 22 20 -3 23 -7 14
-18z m881 -4 c0 -5 -4 -10 -10 -10 -5 0 -10 5 -10 10 0 6 5 10 10 10 6 0 10
-4 10 -10z m-1440 -50 c-8 -5 -19 -10 -25 -10 -5 0 -3 5 5 10 8 5 20 10 25 10
6 0 3 -5 -5 -10z m1480 -50 c0 -5 -2 -10 -4 -10 -3 0 -8 5 -11 10 -3 6 -1 10
4 10 6 0 11 -4 11 -10z m-1104 -25 c-3 -20 -20 -20 -24 -1 -2 9 3 16 11 16 9
0 14 -7 13 -15z m1094 -5 c0 -5 -4 -10 -10 -10 -5 0 -10 5 -10 10 0 6 5 10 10
10 6 0 10 -4 10 -10z m-1657 -35 c-3 -9 -8 -14 -10 -11 -3 3 -2 9 2 15 9 16
15 13 8 -4z m1675 -4 c3 -8 -1 -12 -9 -9 -7 2 -15 10 -17 17 -3 8 1 12 9 9 7
-2 15 -10 17 -17z m-1231 -27 c3 -8 12 -13 21 -9 12 4 13 3 2 -10 -20 -24 -4
-30 26 -10 l27 17 -7 -26 c-8 -33 20 -49 39 -23 16 22 27 22 23 0 -3 -15 9
-18 96 -21 54 -1 116 -9 137 -16 22 -8 42 -10 45 -5 7 12 24 11 24 -1 0 -12
-69 -31 -104 -28 -16 2 -25 7 -22 15 3 7 -1 10 -10 6 -8 -3 -13 -12 -9 -20 4
-13 -1 -14 -27 -8 -18 4 -61 8 -95 9 -35 0 -63 6 -63 11 0 6 -10 16 -22 24
-21 13 -22 13 -10 -1 10 -13 9 -16 -8 -21 -11 -3 -17 -1 -14 4 6 10 -27 44
-48 51 -6 2 -10 17 -10 32 0 19 -3 24 -9 15 -10 -17 -23 -5 -16 16 8 19 26 19
34 -1z m-459 -112 c2 -7 -3 -12 -12 -12 -9 0 -16 7 -16 16 0 17 22 14 28 -4z
m972 11 c-8 -3 -19 -9 -25 -13 -5 -5 -16 -2 -23 6 -11 12 -7 14 25 13 21 0 31
-3 23 -6z m454 -24 c-6 -11 -24 -2 -24 11 0 5 7 7 15 4 8 -4 12 -10 9 -15z
m-154 3 c0 -11 -41 -34 -48 -27 -4 4 2 13 12 21 22 15 36 18 36 6z m17 -24
c-3 -8 -6 -5 -6 6 -1 11 2 17 5 13 3 -3 4 -12 1 -19z m405 -3 c3 -13 1 -22 -3
-19 -9 5 -13 44 -5 44 2 0 6 -11 8 -25z m-1037 -15 c10 -11 15 -23 12 -27 -4
-3 -7 -2 -7 4 0 5 -10 15 -23 20 -19 9 -26 8 -35 -8 -11 -18 -10 -19 13 -13
28 7 36 -13 8 -23 -10 -4 -23 2 -35 18 -12 14 -16 25 -9 27 6 2 9 8 5 13 -11
18 53 8 71 -11z m40 2 c-3 -3 -11 0 -18 7 -9 10 -8 11 6 5 10 -3 15 -9 12 -12z
m-205 -7 c0 -8 -7 -15 -15 -15 -13 0 -14 3 -3 15 16 18 18 18 18 0z m275 5
c-3 -5 2 -10 12 -10 15 0 16 -2 3 -10 -9 -6 -17 -5 -21 2 -4 6 -14 8 -23 5 -9
-4 -16 -4 -16 -1 0 2 10 9 23 14 29 12 29 12 22 0z m435 0 c0 -5 -5 -10 -11
-10 -5 0 -7 5 -4 10 3 6 8 10 11 10 2 0 4 -4 4 -10z m-810 -20 c0 -5 -5 -10
-11 -10 -5 0 -7 5 -4 10 3 6 8 10 11 10 2 0 4 -4 4 -10z m830 -10 c0 -5 -4
-10 -10 -10 -5 0 -10 5 -10 10 0 6 5 10 10 10 6 0 10 -4 10 -10z m-700 -21 c0
-5 -4 -9 -10 -9 -5 0 -10 7 -10 16 0 8 5 12 10 9 6 -3 10 -10 10 -16z m614
-38 c3 -4 -1 -17 -9 -27 -14 -18 -14 -17 -13 9 2 27 12 35 22 18z m-629 -41
c3 -5 1 -10 -4 -10 -6 0 -11 5 -11 10 0 6 2 10 4 10 3 0 8 -4 11 -10z m565
-15 c0 -2 -9 -9 -20 -15 -16 -9 -18 -8 -14 5 5 13 34 22 34 10z m640 -49 c0
-11 -19 -15 -25 -6 -3 5 1 10 9 10 9 0 16 -2 16 -4z m-20 -36 c0 -5 -9 -10
-20 -10 -11 0 -20 5 -20 10 0 6 9 10 20 10 11 0 20 -4 20 -10z m-879 -83 c-13
-13 -26 -3 -16 12 3 6 11 8 17 5 6 -4 6 -10 -1 -17z m269 -47 c0 -5 -7 -10
-16 -10 -8 0 -12 5 -9 10 3 6 10 10 16 10 5 0 9 -4 9 -10z m-56 -46 c3 -8 2
-12 -4 -9 -6 3 -10 10 -10 16 0 14 7 11 14 -7z m536 -559 c0 -8 -4 -15 -10
-15 -5 0 -10 7 -10 15 0 8 5 15 10 15 6 0 10 -7 10 -15z m3 -62 c-8 -22 -23
-33 -45 -33 -15 0 -14 3 5 24 26 29 49 34 40 9z m-393 -19 c0 -14 -3 -14 -15
-4 -8 7 -15 14 -15 16 0 2 7 4 15 4 8 0 15 -7 15 -16z m380 -44 c0 -5 -5 -10
-11 -10 -5 0 -7 5 -4 10 3 6 8 10 11 10 2 0 4 -4 4 -10z m-310 -24 c0 -2 -7
-9 -15 -16 -13 -11 -14 -10 -9 4 5 14 24 23 24 12z m270 -11 c0 -8 -4 -15 -10
-15 -5 0 -7 7 -4 15 4 8 8 15 10 15 2 0 4 -7 4 -15z m0 -469 c0 -2 -7 -7 -16
-10 -8 -3 -12 -2 -9 4 6 10 25 14 25 6z m110 -266 c0 -5 -4 -10 -10 -10 -5 0
-10 5 -10 10 0 6 5 10 10 10 6 0 10 -4 10 -10z m-1290 -250 c0 -5 -4 -10 -10
-10 -5 0 -10 5 -10 10 0 6 5 10 10 10 6 0 10 -4 10 -10z m30 -54 c0 -3 -4 -8
-10 -11 -5 -3 -10 -1 -10 4 0 6 5 11 10 11 6 0 10 -2 10 -4z m942 -21 c-6 -31
18 -34 36 -4 10 16 16 18 27 9 10 -9 19 -8 36 0 17 10 20 9 17 -2 -3 -7 -14
-14 -26 -16 -14 -2 -19 -8 -15 -19 5 -12 1 -14 -17 -8 -19 6 -22 4 -17 -9 10
-25 -13 -19 -39 11 -17 20 -20 31 -13 45 13 25 17 23 11 -7z m-37 -5 c3 -5 1
-10 -4 -10 -6 0 -11 5 -11 10 0 6 2 10 4 10 3 0 8 -4 11 -10z m15 -35 c0 -8
-4 -15 -10 -15 -5 0 -10 7 -10 15 0 8 5 15 10 15 6 0 10 -7 10 -15z m150 6 c0
-6 -5 -13 -10 -16 -6 -4 -8 -11 -5 -16 4 -5 1 -9 -4 -9 -12 0 -15 33 -4 43 9
10 23 8 23 -2z m-351 -11 l24 0 -26 -24 c-20 -19 -23 -25 -12 -30 17 -6 21
-46 5 -46 -5 0 -10 7 -10 15 0 8 -8 15 -17 15 -23 0 -53 29 -53 52 0 11 5 16
10 13 6 -3 10 -1 10 6 0 7 9 9 23 5 12 -3 33 -6 46 -6z m-686 -36 c-7 -19 -10
-18 -16 5 -3 13 -1 18 9 14 7 -2 10 -11 7 -19z m1072 6 c-10 -11 -20 -18 -23
-16 -5 6 21 35 32 36 5 0 1 -9 -9 -20z m100 -10 c3 -5 1 -10 -4 -10 -6 0 -11
5 -11 10 0 6 2 10 4 10 3 0 8 -4 11 -10z m-579 -14 c15 -16 18 -26 6 -26 -4 0
-13 9 -20 20 -14 23 -7 26 14 6z m-524 -50 c-3 -6 -7 -5 -10 2 -3 10 -7 10
-18 1 -10 -8 -14 -8 -14 0 0 6 5 11 10 11 6 0 10 8 10 17 0 15 2 14 14 -2 8
-11 12 -24 8 -29z m343 4 c3 -5 1 -10 -4 -10 -6 0 -11 5 -11 10 0 6 2 10 4 10
3 0 8 -4 11 -10z m239 -11 c-3 -5 -10 -7 -15 -3 -5 3 -7 10 -3 15 3 5 10 7 15
3 5 -3 7 -10 3 -15z m-121 -9 c3 -11 1 -20 -4 -20 -5 0 -9 9 -9 20 0 11 2 20
4 20 2 0 6 -9 9 -20z m57 5 c-14 -17 -40 -20 -40 -6 0 8 18 16 44 20 5 0 3 -6
-4 -14z m220 -5 c0 -5 -2 -10 -4 -10 -3 0 -8 5 -11 10 -3 6 -1 10 4 10 6 0 11
-4 11 -10z m-710 -10 c0 -5 -4 -10 -10 -10 -5 0 -10 5 -10 10 0 6 5 10 10 10
6 0 10 -4 10 -10z m535 0 c3 -5 -1 -10 -9 -10 -20 0 -20 -3 4 -52 11 -23 18
-43 17 -45 -2 -2 -16 10 -30 27 -15 16 -32 30 -39 30 -6 0 -3 -9 7 -20 17 -18
17 -20 1 -20 -9 0 -19 6 -22 14 -3 8 -18 16 -35 20 -19 4 -29 11 -29 23 1 17
1 17 14 0 12 -15 14 -16 20 -2 3 8 14 15 24 15 11 0 25 7 32 15 14 17 36 20
45 5z m24 -24 c-13 -27 -29 -35 -29 -14 0 13 31 50 37 44 2 -2 -2 -15 -8 -30z
m-329 14 c0 -5 -4 -10 -10 -10 -5 0 -10 5 -10 10 0 6 5 10 10 10 6 0 10 -4 10
-10z m-119 -29 c-6 -10 -7 -21 -4 -25 3 -3 1 -6 -5 -6 -16 0 -15 23 0 38 17
17 20 15 9 -7z m64 9 c3 -5 1 -10 -4 -10 -6 0 -11 5 -11 10 0 6 2 10 4 10 3 0
8 -4 11 -10z m210 -28 c-7 -8 -35 7 -35 18 0 6 7 6 20 -2 10 -7 17 -14 15 -16z
m-385 14 c0 -3 -4 -8 -10 -11 -5 -3 -10 -1 -10 4 0 6 5 11 10 11 6 0 10 -2 10
-4z m140 -6 c0 -5 -5 -10 -11 -10 -5 0 -7 5 -4 10 3 6 8 10 11 10 2 0 4 -4 4
-10z m50 -14 c0 -17 -14 -29 -23 -20 -8 8 3 34 14 34 5 0 9 -6 9 -14z m155
-43 c-18 -17 -26 -17 -19 2 4 9 0 15 -10 15 -9 0 -16 -5 -16 -12 0 -6 -2 -9
-5 -6 -3 3 -3 12 0 20 5 13 12 14 35 5 23 -9 26 -13 15 -24z m-70 18 c-6 -5
-23 -12 -40 -16 -29 -6 -29 -6 -11 9 21 17 67 23 51 7z m315 -1 c0 -5 -4 -10
-10 -10 -5 0 -10 5 -10 10 0 6 5 10 10 10 6 0 10 -4 10 -10z m-470 -10 c0 -5
-4 -10 -10 -10 -5 0 -10 5 -10 10 0 6 5 10 10 10 6 0 10 -4 10 -10z m327 4
c-3 -3 -12 -4 -19 -1 -8 3 -5 6 6 6 11 1 17 -2 13 -5z m-277 -34 c0 -5 -10
-10 -22 -10 -19 0 -20 2 -8 10 19 13 30 13 30 0z m460 0 c0 -5 -10 -10 -22 -9
-22 0 -22 1 -3 9 11 5 21 9 23 9 1 1 2 -3 2 -9z m-335 -10 c3 -6 -1 -7 -9 -4
-18 7 -21 14 -7 14 6 0 13 -4 16 -10z m50 -20 c-10 -11 -21 -18 -23 -15 -6 6
31 44 37 39 2 -2 -4 -13 -14 -24z m-97 2 c-10 -2 -18 -10 -18 -18 0 -8 -4 -12
-10 -9 -27 17 7 52 35 36 6 -3 2 -7 -7 -9z m332 8 c0 -5 -4 -10 -10 -10 -5 0
-10 5 -10 10 0 6 5 10 10 10 6 0 10 -4 10 -10z m-95 -10 c-3 -5 -11 -10 -16
-10 -6 0 -7 5 -4 10 3 6 11 10 16 10 6 0 7 -4 4 -10z m-105 -20 c0 -5 -7 -10
-16 -10 -8 0 -12 5 -9 10 3 6 10 10 16 10 5 0 9 -4 9 -10z m199 -6 c2 -2 2 -7
-2 -10 -3 -3 -16 2 -29 11 l-23 17 25 -7 c14 -4 27 -9 29 -11z m34 -14 c-3
-11 -10 -23 -16 -27 -7 -4 -8 0 -4 11 4 10 7 24 7 32 0 9 4 13 9 10 5 -3 7
-15 4 -26z m-323 16 c0 -3 -4 -8 -10 -11 -5 -3 -10 -1 -10 4 0 6 5 11 10 11 6
0 10 -2 10 -4z m40 -26 c0 -5 -4 -10 -10 -10 -5 0 -10 5 -10 10 0 6 5 10 10
10 6 0 10 -4 10 -10z m177 -6 c-3 -3 -12 -4 -19 -1 -8 3 -5 6 6 6 11 1 17 -2
13 -5z m-262 -14 c-3 -5 -13 -10 -21 -10 -8 0 -12 5 -9 10 3 6 13 10 21 10 8
0 12 -4 9 -10z m196 -22 c10 -13 18 -26 19 -30 0 -16 -16 -6 -38 23 -27 34
-10 40 19 7z m112 -55 c-7 -2 -19 -2 -25 0 -7 3 -2 5 12 5 14 0 19 -2 13 -5z
m-103 -53 c0 -5 -5 -10 -11 -10 -5 0 -7 5 -4 10 3 6 8 10 11 10 2 0 4 -4 4
-10z m25 -60 c7 -12 -2 -12 -30 0 -19 8 -19 9 2 9 12 1 25 -3 28 -9z m-208
-22 c-3 -8 -6 -5 -6 6 -1 11 2 17 5 13 3 -3 4 -12 1 -19z m385 0 c-6 -6 -15
-8 -19 -4 -4 4 -1 11 7 16 19 12 27 3 12 -12z m-365 -20 c-3 -8 -6 -5 -6 6 -1
11 2 17 5 13 3 -3 4 -12 1 -19z m228 2 c3 -5 -1 -10 -9 -10 -9 0 -16 5 -16 10
0 6 4 10 9 10 6 0 13 -4 16 -10z m124 1 c7 -5 9 -11 4 -14 -6 -4 -19 0 -29 8
-15 11 -16 14 -4 15 8 0 21 -4 29 -9z m141 -6 c0 -8 -4 -15 -9 -15 -13 0 -22
16 -14 24 11 11 23 6 23 -9z m-450 -11 c0 -8 -4 -12 -10 -9 -5 3 -10 10 -10
16 0 5 5 9 10 9 6 0 10 -7 10 -16z m408 -5 c12 -11 27 -17 32 -14 6 3 10 2 10
-2 0 -14 -23 -33 -39 -33 -14 0 -14 2 -1 10 12 8 12 10 -3 16 -9 3 -17 12 -17
19 0 7 -6 16 -12 18 -7 3 -8 6 -2 6 5 1 20 -8 32 -20z m-214 -14 c-4 -8 -12
-15 -20 -15 -20 0 -17 18 4 23 9 3 18 5 19 6 1 0 0 -6 -3 -14z m178 -34 c-2
-19 -1 -22 6 -12 7 9 15 10 28 3 11 -5 25 -7 32 -5 6 3 12 0 12 -6 0 -6 4 -11
9 -11 4 0 6 11 3 25 -2 15 0 25 7 25 6 0 11 -4 11 -10 0 -18 29 -10 35 10 7
24 35 27 35 4 0 -9 8 -14 18 -13 29 3 42 -1 42 -11 0 -5 -13 -10 -30 -10 -16
0 -30 5 -30 10 0 6 -7 10 -15 10 -8 0 -15 -9 -15 -20 0 -20 15 -25 68 -20 12
1 22 -3 22 -9 0 -6 -5 -11 -10 -11 -7 0 -7 -7 0 -21 7 -11 9 -23 6 -26 -7 -8
-27 7 -21 17 3 4 -2 13 -10 20 -13 10 -15 9 -15 -10 0 -15 -5 -20 -14 -17 -23
9 -27 -5 -6 -20 11 -8 20 -21 20 -29 0 -8 5 -14 10 -14 6 0 10 -5 10 -10 0 -7
-7 -7 -21 0 -12 7 -18 18 -15 26 4 9 -2 14 -15 14 -15 0 -19 -5 -15 -15 3 -8
2 -14 -2 -14 -27 4 -42 -3 -42 -21 0 -23 -38 -28 -58 -8 -9 9 -15 9 -24 0 -7
-7 -25 -12 -41 -12 -17 0 -35 -8 -42 -17 -12 -16 -14 -16 -29 -1 -19 20 -21
67 -3 72 6 2 21 7 32 11 19 7 18 8 -5 14 -19 5 -22 9 -11 16 11 6 10 10 -9 17
-12 5 -25 6 -28 3 -3 -3 0 -5 6 -5 7 0 12 -7 12 -15 0 -8 -5 -15 -11 -15 -5 0
-7 -5 -4 -10 3 -6 -1 -17 -9 -26 -15 -14 -18 -14 -33 2 -12 12 -18 13 -21 4
-3 -7 1 -16 8 -20 8 -5 7 -11 -5 -24 -13 -13 -20 -14 -31 -5 -18 15 -18 43 0
36 8 -3 16 2 19 13 3 11 0 21 -6 23 -6 2 -7 9 -2 17 6 10 11 9 21 -5 8 -10 17
-15 21 -11 4 4 1 11 -7 16 -8 6 -11 10 -5 10 5 0 4 5 -3 12 -7 7 -12 21 -12
31 0 17 2 17 20 -4 17 -21 19 -22 20 -5 0 15 3 16 15 6 9 -7 18 -10 22 -7 3 4
12 2 20 -4 21 -18 16 9 -8 39 l-21 27 7 -25 c5 -19 4 -22 -4 -14 -13 12 -5 60
10 70 16 10 47 -6 52 -28 5 -19 7 -19 21 -5 18 17 21 32 6 22 -11 -7 -14 8 -4
18 12 12 30 -18 26 -42z m-332 29 c0 -5 -2 -10 -4 -10 -3 0 -8 5 -11 10 -3 6
-1 10 4 10 6 0 11 -4 11 -10z m654 -2 c-7 -11 -34 -10 -34 1 0 6 9 9 19 8 11
0 17 -5 15 -9z m-494 -28 c0 -5 -8 -10 -17 -10 -9 0 -25 -7 -35 -17 -10 -9
-18 -11 -18 -6 0 6 15 18 33 27 38 19 37 18 37 6z m447 4 c-3 -3 -12 -4 -19
-1 -8 3 -5 6 6 6 11 1 17 -2 13 -5z m-627 -24 c0 -5 -7 -10 -16 -10 -8 0 -12
5 -9 10 3 6 10 10 16 10 5 0 9 -4 9 -10z m67 -42 c-3 -8 -6 -5 -6 6 -1 11 2
17 5 13 3 -3 4 -12 1 -19z m-27 2 c0 -5 -2 -10 -4 -10 -3 0 -8 5 -11 10 -3 6
-1 10 4 10 6 0 11 -4 11 -10z m86 -11 c19 -22 19 -22 -3 -10 -24 12 -39 31
-25 31 5 0 17 -10 28 -21z m-56 -46 c0 -7 -4 -13 -10 -13 -5 0 -10 12 -10 28
0 21 2 24 10 12 5 -8 10 -21 10 -27z m35 17 c-3 -5 -10 -10 -16 -10 -5 0 -9 5
-9 10 0 6 7 10 16 10 8 0 12 -4 9 -10z m470 -30 c3 -5 1 -10 -4 -10 -6 0 -11
5 -11 10 0 6 2 10 4 10 3 0 8 -4 11 -10z m-472 -35 c-3 -9 -8 -14 -10 -11 -3
3 -2 9 2 15 9 16 15 13 8 -4z m115 -17 c-2 -6 -15 -18 -28 -27 -21 -14 -23
-14 -16 -1 16 27 28 40 38 40 5 0 8 -5 6 -12z m322 -18 c0 -5 -2 -10 -4 -10
-3 0 -8 5 -11 10 -3 6 -1 10 4 10 6 0 11 -4 11 -10z m-150 -9 c0 -5 -7 -12
-16 -15 -22 -9 -24 -8 -24 9 0 8 9 15 20 15 11 0 20 -4 20 -9z m-160 -11 c0
-5 -7 -10 -15 -10 -8 0 -15 -5 -15 -12 0 -6 -2 -9 -5 -6 -3 3 -3 13 1 22 7 17
34 22 34 6z m235 1 c3 -5 1 -12 -4 -15 -5 -3 -11 1 -15 9 -6 16 9 21 19 6z
m-140 -37 c19 -45 19 -55 0 -30 -8 11 -21 16 -30 13 -8 -4 -15 -2 -15 3 0 6 6
10 14 10 9 0 12 7 9 20 -9 33 6 22 22 -16z m-65 2 c0 -9 -7 -12 -21 -9 -16 4
-17 8 -7 14 19 13 28 11 28 -5z m190 0 c0 -11 -19 -15 -25 -6 -3 5 1 10 9 10
9 0 16 -2 16 -4z m528 -1291 c-3 -3 -9 2 -12 12 -6 14 -5 15 5 6 7 -7 10 -15
7 -18z m-48 -39 c0 -3 -4 -8 -10 -11 -5 -3 -10 -1 -10 4 0 6 5 11 10 11 6 0
10 -2 10 -4z m90 -116 c0 -5 -5 -10 -11 -10 -5 0 -7 5 -4 10 3 6 8 10 11 10 2
0 4 -4 4 -10z m99 -363 c-2 -1 -13 -9 -24 -17 -19 -14 -19 -14 -6 3 7 9 18 17
24 17 6 0 8 -1 6 -3z m-513 -164 c-10 -10 -19 5 -10 18 6 11 8 11 12 0 2 -7 1
-15 -2 -18z m494 -73 c0 -11 -42 -31 -49 -24 -2 2 2 10 9 19 14 17 40 20 40 5z
m30 -20 c0 -5 -5 -10 -11 -10 -5 0 -7 5 -4 10 3 6 8 10 11 10 2 0 4 -4 4 -10z
m-20 -27 c-1 -5 -8 -19 -16 -33 -8 -14 -13 -17 -10 -7 3 10 6 25 6 33 0 8 5
14 10 14 6 0 10 -3 10 -7z m0 -67 c0 -2 -9 -6 -20 -9 -11 -3 -20 -1 -20 4 0 5
9 9 20 9 11 0 20 -2 20 -4z m85 -24 c-3 -3 -11 0 -18 7 -9 10 -8 11 6 5 10 -3
15 -9 12 -12z m-35 -2 c0 -5 -4 -10 -10 -10 -5 0 -10 5 -10 10 0 6 5 10 10 10
6 0 10 -4 10 -10z m20 -27 c0 -5 -5 -15 -10 -23 -7 -12 -9 -10 -7 8 1 19 17
33 17 15z m-30 -7 c0 -3 -4 -8 -10 -11 -5 -3 -10 -1 -10 4 0 6 5 11 10 11 6 0
10 -2 10 -4z m-43 -12 c-3 -3 -12 -4 -19 -1 -8 3 -5 6 6 6 11 1 17 -2 13 -5z
m127 -79 c-4 -8 -8 -15 -10 -15 -2 0 -4 7 -4 15 0 8 4 15 10 15 5 0 7 -7 4
-15z m-59 -5 c3 -5 2 -10 -4 -10 -5 0 -13 5 -16 10 -3 6 -2 10 4 10 5 0 13 -4
16 -10z m152 -32 c-3 -8 -6 -5 -6 6 -1 11 2 17 5 13 3 -3 4 -12 1 -19z m-81
-15 c-10 -10 -19 5 -10 18 6 11 8 11 12 0 2 -7 1 -15 -2 -18z m118 -24 c-3 -5
-10 -7 -15 -3 -5 3 -7 10 -3 15 3 5 10 7 15 3 5 -3 7 -10 3 -15z"/>
<path d="M3680 7640 c0 -5 9 -14 20 -20 22 -12 27 -1 8 18 -14 14 -28 16 -28
2z"/>
<path d="M3745 7620 c-8 -13 15 -24 27 -12 6 6 4 11 -6 15 -8 3 -18 2 -21 -3z"/>
<path d="M3515 7610 c-3 -5 3 -10 15 -10 12 0 18 5 15 10 -3 6 -10 10 -15 10
-5 0 -12 -4 -15 -10z"/>
<path d="M3668 7603 c7 -3 16 -2 19 1 4 3 -2 6 -13 5 -11 0 -14 -3 -6 -6z"/>
<path d="M3574 7586 c23 -18 36 -20 36 -6 0 6 -4 10 -9 10 -5 0 -18 3 -28 6
-16 5 -16 4 1 -10z"/>
<path d="M3641 7595 c0 -13 28 -50 33 -44 3 2 -4 15 -14 29 -11 14 -20 21 -19
15z"/>
<path d="M3675 7580 c3 -5 8 -10 11 -10 2 0 4 5 4 10 0 6 -5 10 -11 10 -5 0
-7 -4 -4 -10z"/>
<path d="M3750 7570 c0 -5 7 -7 15 -4 8 4 15 8 15 10 0 2 -7 4 -15 4 -8 0 -15
-4 -15 -10z"/>
<path d="M3520 7560 c0 -13 11 -13 30 0 12 8 11 10 -7 10 -13 0 -23 -4 -23
-10z"/>
<path d="M3703 7551 c-1 -14 3 -18 13 -14 16 6 14 25 -2 30 -5 2 -10 -6 -11
-16z"/>
<path d="M3761 7546 c-10 -11 -9 -14 1 -12 14 2 23 15 15 22 -2 2 -10 -2 -16
-10z"/>
<path d="M3823 7533 c9 -2 17 -14 17 -26 0 -18 2 -19 10 -7 11 18 -6 40 -29
39 -13 -1 -13 -2 2 -6z"/>
<path d="M3395 7496 c-16 -24 -16 -28 -2 -44 15 -16 15 -20 1 -40 -20 -29 -7
-29 16 0 14 18 15 27 7 46 -8 18 -8 25 3 32 11 7 12 12 3 21 -8 8 -15 5 -28
-15z"/>
<path d="M3795 7510 c-3 -5 1 -10 10 -10 9 0 13 5 10 10 -3 6 -8 10 -10 10 -2
0 -7 -4 -10 -10z"/>
<path d="M3450 7500 c0 -5 5 -10 11 -10 5 0 7 5 4 10 -3 6 -8 10 -11 10 -2 0
-4 -4 -4 -10z"/>
<path d="M3735 7480 c3 -5 12 -7 20 -3 21 7 19 13 -6 13 -11 0 -18 -4 -14 -10z"/>
<path d="M3320 7465 c0 -9 6 -12 17 -8 12 5 15 2 10 -10 -3 -9 -2 -17 3 -17
14 0 12 24 -2 38 -16 16 -28 15 -28 -3z"/>
<path d="M3795 7440 c-3 -6 1 -7 9 -4 18 7 21 14 7 14 -6 0 -13 -4 -16 -10z"/>
<path d="M3665 7380 c-3 -5 -1 -10 4 -10 6 0 11 5 11 10 0 6 -2 10 -4 10 -3 0
-8 -4 -11 -10z"/>
<path d="M3770 7359 c0 -5 5 -7 10 -4 6 3 10 8 10 11 0 2 -4 4 -10 4 -5 0 -10
-5 -10 -11z"/>
<path d="M3780 7305 c0 -8 5 -15 10 -15 6 0 10 7 10 15 0 8 -4 15 -10 15 -5 0
-10 -7 -10 -15z"/>
<path d="M3897 7299 c-5 -17 -11 -20 -31 -15 -20 5 -24 3 -20 -9 11 -26 84 1
84 31 0 22 -27 16 -33 -7z"/>
<path d="M2940 7240 c0 -19 3 -21 12 -12 9 9 9 15 0 24 -9 9 -12 7 -12 -12z"/>
<path d="M2960 7210 c0 -5 5 -10 10 -10 6 0 10 5 10 10 0 6 -4 10 -10 10 -5 0
-10 -4 -10 -10z"/>
<path d="M2956 7181 c-3 -5 1 -11 9 -15 9 -3 15 0 15 9 0 16 -16 20 -24 6z"/>
<path d="M3890 7179 c0 -5 5 -7 10 -4 6 3 10 8 10 11 0 2 -4 4 -10 4 -5 0 -10
-5 -10 -11z"/>
<path d="M2930 7140 c0 -5 5 -10 10 -10 6 0 10 5 10 10 0 6 -4 10 -10 10 -5 0
-10 -4 -10 -10z"/>
<path d="M2990 7114 c0 -8 5 -12 10 -9 6 3 10 10 10 16 0 5 -4 9 -10 9 -5 0
-10 -7 -10 -16z"/>
<path d="M2900 7081 c0 -5 12 -17 28 -26 15 -10 24 -14 20 -10 -4 5 -3 14 4
22 6 7 8 17 4 20 -4 4 -12 1 -17 -7 -8 -11 -12 -12 -16 -2 -5 14 -23 17 -23 3z"/>
<path d="M3911 7064 c0 -11 3 -14 6 -6 3 7 2 16 -1 19 -3 4 -6 -2 -5 -13z"/>
<path d="M3890 7040 c0 -5 5 -10 11 -10 5 0 7 5 4 10 -3 6 -8 10 -11 10 -2 0
-4 -4 -4 -10z"/>
<path d="M2956 7024 c-3 -9 -12 -14 -21 -10 -8 3 -15 1 -15 -4 0 -17 37 -11
44 6 4 9 5 19 2 21 -2 2 -6 -4 -10 -13z"/>
<path d="M3950 7001 c0 -6 5 -13 10 -16 6 -3 10 1 10 9 0 9 -4 16 -10 16 -5 0
-10 -4 -10 -9z"/>
<path d="M2931 6934 c0 -11 3 -14 6 -6 3 7 2 16 -1 19 -3 4 -6 -2 -5 -13z"/>
<path d="M4038 6933 c-10 -2 -18 -9 -18 -15 0 -5 7 -7 16 -4 9 3 20 6 25 6 5
0 9 5 9 10 0 10 -3 11 -32 3z"/>
<path d="M3020 6911 c0 -5 7 -11 15 -15 8 -3 15 -1 15 3 0 5 -7 11 -15 15 -8
3 -15 1 -15 -3z"/>
<path d="M2975 6899 c-4 -6 -5 -12 -2 -15 2 -3 7 2 10 11 7 17 1 20 -8 4z"/>
<path d="M3000 6884 c0 -8 5 -12 10 -9 6 4 8 11 5 16 -9 14 -15 11 -15 -7z"/>
<path d="M2930 6870 c0 -5 5 -10 10 -10 6 0 10 5 10 10 0 6 -4 10 -10 10 -5 0
-10 -4 -10 -10z"/>
<path d="M3047 6836 c-4 -10 -1 -13 9 -9 15 6 19 23 5 23 -5 0 -11 -7 -14 -14z"/>
<path d="M2870 6810 c0 -5 5 -10 10 -10 6 0 10 -7 10 -15 0 -8 5 -15 10 -15
13 0 13 6 0 31 -11 20 -30 26 -30 9z"/>
<path d="M2950 6810 c0 -5 5 -10 10 -10 6 0 10 5 10 10 0 6 -4 10 -10 10 -5 0
-10 -4 -10 -10z"/>
<path d="M2920 6789 c0 -5 5 -7 10 -4 6 3 10 8 10 11 0 2 -4 4 -10 4 -5 0 -10
-5 -10 -11z"/>
<path d="M3980 6786 c0 -2 7 -6 15 -10 8 -3 15 -1 15 4 0 6 -7 10 -15 10 -8 0
-15 -2 -15 -4z"/>
<path d="M2937 6762 c-9 -2 -15 -8 -11 -13 3 -5 10 -6 16 -3 6 4 14 0 19 -7 4
-7 11 -10 15 -7 10 11 -19 34 -39 30z"/>
<path d="M2998 6713 c6 -2 18 -2 25 0 6 3 1 5 -13 5 -14 0 -19 -2 -12 -5z"/>
<path d="M3950 6700 c0 -5 4 -10 9 -10 6 0 13 5 16 10 3 6 -1 10 -9 10 -9 0
-16 -4 -16 -10z"/>
<path d="M2930 6670 c0 -5 5 -10 10 -10 6 0 10 5 10 10 0 6 -4 10 -10 10 -5 0
-10 -4 -10 -10z"/>
<path d="M3390 6669 c0 -5 5 -7 10 -4 6 3 10 8 10 11 0 2 -4 4 -10 4 -5 0 -10
-5 -10 -11z"/>
<path d="M3830 6655 c0 -9 6 -12 15 -9 8 4 12 10 9 15 -8 14 -24 10 -24 -6z"/>
<path d="M3725 6620 c3 -5 10 -10 16 -10 5 0 9 5 9 10 0 6 -7 10 -16 10 -8 0
-12 -4 -9 -10z"/>
<path d="M3150 6270 c0 -5 5 -10 11 -10 5 0 7 5 4 10 -3 6 -8 10 -11 10 -2 0
-4 -4 -4 -10z"/>
<path d="M3060 6219 c0 -11 5 -17 10 -14 6 3 10 13 10 21 0 8 -4 14 -10 14 -5
0 -10 -9 -10 -21z"/>
<path d="M3591 6204 c0 -11 3 -14 6 -6 3 7 2 16 -1 19 -3 4 -6 -2 -5 -13z"/>
<path d="M2986 6181 c-3 -5 1 -11 9 -15 8 -3 15 -1 15 4 0 13 -18 22 -24 11z"/>
<path d="M3545 6170 c-19 -8 -19 -9 2 -9 12 -1 25 4 28 9 7 12 -2 12 -30 0z"/>
<path d="M3091 6124 c0 -11 3 -14 6 -6 3 7 2 16 -1 19 -3 4 -6 -2 -5 -13z"/>
<path d="M2880 6020 c0 -5 5 -10 10 -10 6 0 10 5 10 10 0 6 -4 10 -10 10 -5 0
-10 -4 -10 -10z"/>
<path d="M2906 5992 c-3 -6 -1 -14 5 -17 14 -9 20 -2 10 14 -6 8 -11 9 -15 3z"/>
<path d="M4280 5880 c0 -5 5 -10 10 -10 6 0 10 5 10 10 0 6 -4 10 -10 10 -5 0
-10 -4 -10 -10z"/>
<path d="M2611 5854 c0 -11 3 -14 6 -6 3 7 2 16 -1 19 -3 4 -6 -2 -5 -13z"/>
<path d="M4398 5673 c7 -3 16 -2 19 1 4 3 -2 6 -13 5 -11 0 -14 -3 -6 -6z"/>
<path d="M4080 5576 c0 -9 5 -16 10 -16 6 0 10 4 10 9 0 6 -4 13 -10 16 -5 3
-10 -1 -10 -9z"/>
<path d="M4185 5540 c-3 -5 -1 -10 4 -10 6 0 11 5 11 10 0 6 -2 10 -4 10 -3 0
-8 -4 -11 -10z"/>
<path d="M3150 5501 c0 -15 -33 -22 -41 -9 -7 10 -12 9 -25 -4 -15 -15 -16
-21 -5 -45 11 -23 10 -29 -5 -40 -10 -7 -14 -16 -11 -20 4 -4 13 -1 19 5 7 7
23 12 37 12 24 0 24 1 5 15 -11 8 -14 15 -6 15 6 0 12 5 12 11 0 5 -4 8 -8 5
-14 -8 -38 12 -27 23 12 11 55 -4 55 -19 0 -5 5 -10 10 -10 14 0 12 28 -2 33
-10 3 -10 7 1 20 9 11 10 17 2 17 -6 0 -11 -4 -11 -9z"/>
<path d="M2692 5480 c0 -14 2 -19 5 -12 2 6 2 18 0 25 -3 6 -5 1 -5 -13z"/>
<path d="M2706 5443 c-6 -14 -5 -15 5 -6 7 7 10 15 7 18 -3 3 -9 -2 -12 -12z"/>
<path d="M3208 5424 c2 -13 8 -21 13 -18 14 8 11 31 -4 37 -10 4 -13 -2 -9
-19z"/>
<path d="M2711 5378 c-1 -9 -7 -18 -13 -21 -9 -3 -7 -7 5 -12 24 -10 29 -3 18
26 -7 16 -10 18 -10 7z"/>
<path d="M2700 5321 c0 -10 30 -24 37 -17 3 2 -5 9 -16 16 -12 6 -21 7 -21 1z"/>
<path d="M3200 5323 c0 -5 5 -15 10 -23 8 -12 10 -11 10 8 0 12 -4 22 -10 22
-5 0 -10 -3 -10 -7z"/>
<path d="M2700 5257 c0 -14 5 -29 10 -32 7 -4 8 3 4 22 -9 38 -14 42 -14 10z"/>
<path d="M4340 5269 c0 -5 9 -9 20 -9 11 0 20 2 20 4 0 2 -9 6 -20 9 -11 3
-20 1 -20 -4z"/>
<path d="M3247 5248 c-3 -8 4 -25 15 -39 l20 -24 -7 30 c-8 36 -20 51 -28 33z"/>
<path d="M3860 5236 c0 -2 7 -7 16 -10 8 -3 12 -2 9 4 -6 10 -25 14 -25 6z"/>
<path d="M3840 5221 c0 -6 4 -13 10 -16 6 -3 7 1 4 9 -7 18 -14 21 -14 7z"/>
<path d="M2710 5192 c0 -14 6 -22 16 -22 14 0 15 3 3 18 -7 9 -15 19 -16 21
-2 2 -3 -5 -3 -17z"/>
<path d="M4345 5180 c-3 -5 -1 -10 4 -10 6 0 11 5 11 10 0 6 -2 10 -4 10 -3 0
-8 -4 -11 -10z"/>
<path d="M2705 5078 c1 -40 5 -81 9 -90 4 -9 4 -23 0 -30 -5 -10 -4 -11 7 0
18 17 25 15 26 -9 2 -21 32 -51 44 -43 11 6 -2 44 -14 41 -7 -1 -10 13 -8 37
2 31 0 38 -12 33 -9 -3 -18 1 -21 9 -3 8 -1 14 4 14 6 0 10 7 10 15 0 8 -7 15
-15 15 -22 0 -18 17 5 23 20 5 20 6 -3 31 -14 14 -26 26 -29 26 -2 0 -4 -33
-3 -72z"/>
<path d="M3800 5140 c0 -5 4 -10 9 -10 6 0 13 5 16 10 3 6 -1 10 -9 10 -9 0
-16 -4 -16 -10z"/>
<path d="M3410 4995 c0 -9 5 -15 11 -13 6 2 11 8 11 13 0 5 -5 11 -11 13 -6 2
-11 -4 -11 -13z"/>
<path d="M2821 4984 c0 -11 3 -14 6 -6 3 7 2 16 -1 19 -3 4 -6 -2 -5 -13z"/>
<path d="M3455 4970 c3 -5 8 -10 11 -10 2 0 4 5 4 10 0 6 -5 10 -11 10 -5 0
-7 -4 -4 -10z"/>
<path d="M2828 4953 c7 -3 16 -2 19 1 4 3 -2 6 -13 5 -11 0 -14 -3 -6 -6z"/>
<path d="M3410 4956 c0 -2 7 -7 16 -10 8 -3 12 -2 9 4 -6 10 -25 14 -25 6z"/>
<path d="M3300 4941 c0 -5 7 -12 16 -15 14 -5 15 -4 4 9 -14 17 -20 19 -20 6z"/>
<path d="M2783 4869 c-13 -5 -23 -13 -23 -19 0 -14 11 -12 34 5 24 18 18 25
-11 14z"/>
<path d="M2850 4850 c0 -5 5 -10 11 -10 5 0 7 5 4 10 -3 6 -8 10 -11 10 -2 0
-4 -4 -4 -10z"/>
<path d="M2794 4829 c-3 -6 -1 -16 5 -22 9 -9 11 -8 6 5 -4 11 0 18 12 21 15
4 16 5 1 6 -9 0 -20 -4 -24 -10z"/>
<path d="M3136 4801 c-4 -7 -5 -15 -2 -18 9 -9 19 4 14 18 -4 11 -6 11 -12 0z"/>
<path d="M3928 4758 c-10 -12 -18 -28 -18 -35 0 -7 -9 -17 -20 -23 -11 -6 -20
-15 -20 -19 0 -12 43 -1 53 13 6 8 10 7 14 -1 8 -20 26 -15 47 13 18 26 18 26
-3 15 -17 -10 -25 -9 -36 3 -21 21 -19 26 11 26 23 0 24 2 10 15 -18 19 -18
19 -38 -7z"/>
<path d="M3855 4730 c-3 -5 -3 -10 2 -10 4 0 1 -5 -7 -11 -12 -8 -12 -10 5 -7
11 2 21 11 23 21 4 18 -13 24 -23 7z"/>
<path d="M2820 4719 c0 -5 5 -7 10 -4 6 3 10 8 10 11 0 2 -4 4 -10 4 -5 0 -10
-5 -10 -11z"/>
<path d="M2837 4681 c-4 -17 -3 -21 5 -13 5 5 8 16 6 23 -3 8 -7 3 -11 -10z"/>
<path d="M3775 4690 c-3 -5 -1 -10 4 -10 6 0 11 5 11 10 0 6 -2 10 -4 10 -3 0
-8 -4 -11 -10z"/>
<path d="M2930 4670 c0 -5 5 -10 11 -10 5 0 7 5 4 10 -3 6 -8 10 -11 10 -2 0
-4 -4 -4 -10z"/>
<path d="M4020 4620 c0 -5 5 -10 10 -10 6 0 10 5 10 10 0 6 -4 10 -10 10 -5 0
-10 -4 -10 -10z"/>
<path d="M2860 4611 c-15 -4 -20 -10 -13 -14 13 -8 43 1 43 14 0 5 -1 9 -2 8
-2 -1 -14 -4 -28 -8z"/>
<path d="M2710 4601 c0 -6 4 -13 10 -16 6 -3 7 1 4 9 -7 18 -14 21 -14 7z"/>
<path d="M4000 4580 c0 -13 18 -22 24 -11 3 5 -1 11 -9 15 -8 3 -15 1 -15 -4z"/>
<path d="M2860 4554 c0 -14 4 -23 9 -20 5 3 7 15 4 26 -7 28 -13 25 -13 -6z"/>
<path d="M2740 4562 c0 -5 7 -16 16 -23 14 -12 16 -11 13 5 -4 20 -29 35 -29
18z"/>
<path d="M3705 4560 c-3 -6 1 -7 9 -4 18 7 21 14 7 14 -6 0 -13 -4 -16 -10z"/>
<path d="M2915 4540 c3 -5 8 -10 11 -10 2 0 4 5 4 10 0 6 -5 10 -11 10 -5 0
-7 -4 -4 -10z"/>
<path d="M3740 4546 c0 -9 30 -14 35 -6 4 6 -3 10 -14 10 -12 0 -21 -2 -21 -4z"/>
<path d="M4076 4535 c-9 -26 -7 -32 5 -12 6 10 9 21 6 23 -2 3 -7 -2 -11 -11z"/>
<path d="M3720 4510 c19 -13 30 -13 30 0 0 6 -10 10 -22 10 -19 0 -20 -2 -8
-10z"/>
<path d="M3868 4488 c6 -6 18 -8 28 -6 14 3 12 5 -9 10 -19 3 -25 2 -19 -4z"/>
<path d="M4098 4493 c7 -3 16 -2 19 1 4 3 -2 6 -13 5 -11 0 -14 -3 -6 -6z"/>
<path d="M4080 4469 c0 -5 5 -7 10 -4 6 3 10 8 10 11 0 2 -4 4 -10 4 -5 0 -10
-5 -10 -11z"/>
<path d="M3715 4460 c4 -6 11 -8 16 -5 14 9 11 15 -7 15 -8 0 -12 -5 -9 -10z"/>
<path d="M3740 4436 c-10 -13 -4 -26 12 -26 5 0 6 5 3 10 -9 14 38 13 53 -2
15 -15 24 -6 17 15 -8 18 -70 21 -85 3z"/>
<path d="M3677 4423 c-4 -3 -7 -13 -7 -22 1 -13 3 -13 11 2 11 19 8 33 -4 20z"/>
<path d="M3704 4393 c-6 -10 -24 -17 -44 -17 -20 -1 -35 -7 -38 -16 -5 -13 -3
-13 11 -1 14 11 20 11 33 0 15 -12 15 -14 0 -19 -14 -4 -13 -7 4 -18 18 -11
20 -10 20 12 0 14 11 33 25 44 13 11 21 22 18 26 -10 10 -17 7 -29 -11z"/>
<path d="M3731 4366 c-19 -20 -21 -28 -13 -57 7 -24 10 -28 11 -12 1 12 10 24
21 28 11 3 20 11 20 17 0 6 -6 6 -15 -2 -12 -10 -15 -9 -15 4 0 9 7 19 15 22
8 4 15 10 15 15 0 16 -16 10 -39 -15z"/>
<path d="M3626 4311 c-4 -7 -5 -15 -2 -18 9 -9 19 4 14 18 -4 11 -6 11 -12 0z"/>
<path d="M3750 4291 c0 -6 5 -13 10 -16 6 -3 10 1 10 9 0 9 -4 16 -10 16 -5 0
-10 -4 -10 -9z"/>
<path d="M3650 4280 c0 -5 5 -10 10 -10 6 0 10 5 10 10 0 6 -4 10 -10 10 -5 0
-10 -4 -10 -10z"/>
<path d="M3571 4254 c0 -11 3 -14 6 -6 3 7 2 16 -1 19 -3 4 -6 -2 -5 -13z"/>
<path d="M3530 4250 c0 -5 5 -10 11 -10 5 0 7 5 4 10 -3 6 -8 10 -11 10 -2 0
-4 -4 -4 -10z"/>
<path d="M3137 4183 c-4 -3 -7 -11 -7 -17 0 -6 5 -5 12 2 6 6 9 14 7 17 -3 3
-9 2 -12 -2z"/>
<path d="M4120 4030 c0 -5 4 -10 9 -10 5 0 11 -10 14 -22 4 -12 9 -19 12 -16
11 10 -7 58 -21 58 -8 0 -14 -4 -14 -10z"/>
<path d="M3305 3930 c-3 -5 1 -10 9 -10 9 0 16 5 16 10 0 6 -4 10 -9 10 -6 0
-13 -4 -16 -10z"/>
<path d="M4160 3920 c0 -5 4 -10 9 -10 6 0 13 5 16 10 3 6 -1 10 -9 10 -9 0
-16 -4 -16 -10z"/>
<path d="M3880 3899 c0 -5 5 -7 10 -4 6 3 10 8 10 11 0 2 -4 4 -10 4 -5 0 -10
-5 -10 -11z"/>
<path d="M3455 3870 c3 -5 8 -10 11 -10 2 0 4 5 4 10 0 6 -5 10 -11 10 -5 0
-7 -4 -4 -10z"/>
<path d="M2987 3863 c-4 -3 -7 -11 -7 -17 0 -6 5 -5 12 2 6 6 9 14 7 17 -3 3
-9 2 -12 -2z"/>
<path d="M3061 3834 c-16 -19 -11 -25 16 -18 13 4 20 11 16 20 -7 18 -14 17
-32 -2z"/>
<path d="M3230 3790 c0 -5 5 -10 11 -10 5 0 7 5 4 10 -3 6 -8 10 -11 10 -2 0
-4 -4 -4 -10z"/>
<path d="M3368 3783 c7 -3 16 -2 19 1 4 3 -2 6 -13 5 -11 0 -14 -3 -6 -6z"/>
<path d="M3597 3783 c-4 -3 -7 -11 -7 -17 0 -6 5 -5 12 2 6 6 9 14 7 17 -3 3
-9 2 -12 -2z"/>
<path d="M3215 3750 c3 -5 8 -10 11 -10 2 0 4 5 4 10 0 6 -5 10 -11 10 -5 0
-7 -4 -4 -10z"/>
<path d="M3960 3745 c0 -8 5 -15 10 -15 6 0 10 7 10 15 0 8 -4 15 -10 15 -5 0
-10 -7 -10 -15z"/>
<path d="M3640 3740 c0 -5 5 -10 10 -10 6 0 10 5 10 10 0 6 -4 10 -10 10 -5 0
-10 -4 -10 -10z"/>
<path d="M3543 3725 c-19 -21 -16 -27 7 -13 11 7 20 16 20 20 0 12 -14 9 -27
-7z"/>
<path d="M3020 3715 c0 -16 16 -20 24 -6 3 5 -1 11 -9 15 -9 3 -15 0 -15 -9z"/>
<path d="M3449 3702 c7 -12 17 -20 22 -16 6 3 9 7 7 8 -2 1 -12 8 -22 16 -18
14 -19 14 -7 -8z"/>
<path d="M3350 3701 c0 -5 5 -13 10 -16 6 -3 10 -2 10 4 0 5 -4 13 -10 16 -5
3 -10 2 -10 -4z"/>
<path d="M3890 3700 c0 -5 5 -10 10 -10 6 0 10 5 10 10 0 6 -4 10 -10 10 -5 0
-10 -4 -10 -10z"/>
<path d="M3055 3680 c3 -5 8 -10 11 -10 2 0 4 5 4 10 0 6 -5 10 -11 10 -5 0
-7 -4 -4 -10z"/>
<path d="M3333 3670 c6 -11 15 -20 19 -20 12 0 -3 28 -18 34 -11 4 -12 2 -1
-14z"/>
<path d="M3550 3656 c0 -9 -4 -16 -9 -16 -5 0 -11 -7 -15 -15 -9 -24 10 -17
28 9 10 15 12 27 6 31 -6 3 -10 -1 -10 -9z"/>
<path d="M3495 3650 c4 -6 11 -8 16 -5 14 9 11 15 -7 15 -8 0 -12 -5 -9 -10z"/>
<path d="M3448 3633 c7 -3 16 -2 19 1 4 3 -2 6 -13 5 -11 0 -14 -3 -6 -6z"/>
<path d="M3210 3612 c0 -8 -5 -10 -12 -6 -10 5 -10 4 -1 -6 16 -17 35 -9 23
10 -7 11 -10 11 -10 2z"/>
<path d="M3150 3600 c0 -5 5 -10 10 -10 6 0 10 5 10 10 0 6 -4 10 -10 10 -5 0
-10 -4 -10 -10z"/>
<path d="M3360 3600 c0 -5 5 -10 11 -10 5 0 7 5 4 10 -3 6 -8 10 -11 10 -2 0
-4 -4 -4 -10z"/>
<path d="M3070 3580 c0 -5 5 -10 10 -10 6 0 10 5 10 10 0 6 -4 10 -10 10 -5 0
-10 -4 -10 -10z"/>
<path d="M3510 3580 c-13 -8 -13 -10 2 -10 9 0 20 5 23 10 8 13 -5 13 -25 0z"/>
<path d="M3170 3559 c0 -5 5 -7 10 -4 6 3 10 8 10 11 0 2 -4 4 -10 4 -5 0 -10
-5 -10 -11z"/>
<path d="M3215 3561 c-6 -11 9 -23 19 -14 9 9 7 23 -3 23 -6 0 -12 -4 -16 -9z"/>
<path d="M3466 3545 c8 -31 -2 -32 -26 -2 -10 12 -21 19 -25 16 -3 -4 1 -14 9
-22 9 -9 13 -22 10 -30 -8 -22 26 -30 42 -10 15 20 17 34 8 57 -10 26 -25 18
-18 -9z"/>
<path d="M3115 3520 c-3 -5 -1 -10 4 -10 6 0 11 5 11 10 0 6 -2 10 -4 10 -3 0
-8 -4 -11 -10z"/>
<path d="M3142 3508 c-16 -16 -15 -38 1 -38 6 0 12 11 12 25 0 14 0 25 0 25
-1 0 -6 -5 -13 -12z"/>
<path d="M3352 3458 c-17 -17 -15 -31 3 -24 9 3 15 0 15 -8 0 -8 7 -27 15 -42
14 -27 13 -29 -10 -44 -24 -14 -33 -30 -17 -30 4 0 13 5 20 12 8 8 15 8 24 1
8 -6 21 -7 33 -2 19 7 19 8 -2 8 -25 1 -43 21 -19 21 11 0 16 9 16 26 0 19 -4
25 -15 20 -8 -3 -19 3 -25 14 -14 27 -13 32 9 25 26 -8 34 8 11 23 -15 9 -20
8 -25 -6 -7 -16 -8 -16 -14 1 -5 14 -9 15 -19 5z m63 -88 c3 -5 1 -10 -4 -10
-6 0 -11 5 -11 10 0 6 2 10 4 10 3 0 8 -4 11 -10z"/>
<path d="M3200 3400 c0 -5 14 -10 31 -10 17 0 28 4 24 10 -3 6 -17 10 -31 10
-13 0 -24 -4 -24 -10z"/>
<path d="M3343 3403 c-7 -3 -13 -11 -13 -18 0 -7 -5 -15 -10 -17 -7 -2 -5 -11
4 -23 15 -19 15 -19 16 7 0 14 5 28 12 30 6 2 9 9 7 15 -2 5 -10 8 -16 6z"/>
<path d="M3285 3390 c-3 -5 1 -10 9 -10 9 0 16 5 16 10 0 6 -4 10 -9 10 -6 0
-13 -4 -16 -10z"/>
<path d="M3250 3290 c0 -5 5 -10 10 -10 6 0 10 5 10 10 0 6 -4 10 -10 10 -5 0
-10 -4 -10 -10z"/>
<path d="M3290 3240 c0 -5 5 -10 11 -10 5 0 7 5 4 10 -3 6 -8 10 -11 10 -2 0
-4 -4 -4 -10z"/>
<path d="M3385 5670 c-3 -5 1 -10 10 -10 9 0 13 5 10 10 -3 6 -8 10 -10 10 -2
0 -7 -4 -10 -10z"/>
<path d="M3840 2743 c0 -5 5 -15 10 -23 7 -11 12 -12 21 -3 6 6 8 16 5 22 -8
12 -36 15 -36 4z"/>
<path d="M3880 2695 c0 -2 5 -15 11 -29 14 -29 45 -40 54 -19 4 12 0 14 -15
10 -17 -4 -20 -2 -14 15 4 14 2 18 -5 14 -6 -4 -11 -2 -11 3 0 6 -4 11 -10 11
-5 0 -10 -2 -10 -5z"/>
<path d="M3994 2678 c3 -10 -1 -18 -12 -21 -16 -4 -16 -5 0 -6 22 -1 29 11 16
29 -8 12 -9 12 -4 -2z"/>
<path d="M4080 2670 c0 -5 7 -10 16 -10 8 0 12 5 9 10 -3 6 -10 10 -16 10 -5
0 -9 -4 -9 -10z"/>
<path d="M4054 2646 c-13 -15 -7 -36 12 -36 15 0 16 6 6 31 -5 13 -10 14 -18
5z"/>
<path d="M4000 2623 c0 -13 29 -38 35 -31 3 3 -4 13 -15 23 -11 10 -20 13 -20
8z"/>
<path d="M3970 2589 c0 -6 -9 -8 -22 -4 -22 7 -22 6 -6 -10 15 -16 18 -16 32
-2 18 18 20 27 6 27 -5 0 -10 -5 -10 -11z"/>
<path d="M3874 2555 c-10 -8 -14 -15 -8 -15 5 0 19 7 30 15 10 8 14 15 8 15
-5 0 -19 -7 -30 -15z"/>
<path d="M4415 680 c-3 -5 -1 -10 4 -10 6 0 11 5 11 10 0 6 -2 10 -4 10 -3 0
-8 -4 -11 -10z"/>
<path d="M4376 629 c-15 -9 -16 -13 -5 -20 20 -13 29 -11 23 5 -3 8 2 16 13
19 12 3 13 5 3 6 -8 0 -23 -4 -34 -10z"/>
<path d="M4468 623 c7 -3 16 -2 19 1 4 3 -2 6 -13 5 -11 0 -14 -3 -6 -6z"/>
<path d="M4578 603 c7 -3 16 -2 19 1 4 3 -2 6 -13 5 -11 0 -14 -3 -6 -6z"/>
<path d="M4305 590 c3 -5 8 -10 11 -10 2 0 4 5 4 10 0 6 -5 10 -11 10 -5 0 -7
-4 -4 -10z"/>
<path d="M4456 551 c-4 -7 -5 -15 -2 -18 9 -9 19 4 14 18 -4 11 -6 11 -12 0z"/>
<path d="M4640 540 c0 -5 4 -10 9 -10 6 0 13 5 16 10 3 6 -1 10 -9 10 -9 0
-16 -4 -16 -10z"/>
<path d="M4242 510 c0 -14 2 -19 5 -12 2 6 2 18 0 25 -3 6 -5 1 -5 -13z"/>
<path d="M4370 504 c0 -8 5 -12 10 -9 6 4 8 11 5 16 -9 14 -15 11 -15 -7z"/>
<path d="M4460 505 c0 -18 19 -40 26 -32 4 4 0 15 -9 24 -9 10 -17 13 -17 8z"/>
<path d="M4506 493 c-6 -14 -5 -15 5 -6 7 7 10 15 7 18 -3 3 -9 -2 -12 -12z"/>
<path d="M4542 460 c7 -10 14 -18 15 -16 6 6 -9 36 -18 36 -5 0 -4 -9 3 -20z"/>
<path d="M4215 460 c4 -6 11 -8 16 -5 14 9 11 15 -7 15 -8 0 -12 -5 -9 -10z"/>
<path d="M4393 459 c9 -5 17 -18 18 -27 0 -11 2 -12 6 -4 6 15 -14 42 -31 42
-6 0 -3 -5 7 -11z"/>
<path d="M4172 441 c2 -14 9 -26 16 -29 17 -5 15 10 -3 34 -15 18 -15 18 -13
-5z"/>
<path d="M4440 446 c0 -9 5 -16 10 -16 6 0 10 4 10 9 0 6 -4 13 -10 16 -5 3
-10 -1 -10 -9z"/>
<path d="M4320 420 c0 -5 5 -10 11 -10 5 0 7 5 4 10 -3 6 -8 10 -11 10 -2 0
-4 -4 -4 -10z"/>
<path d="M4140 400 c0 -5 4 -10 9 -10 6 0 13 5 16 10 3 6 -1 10 -9 10 -9 0
-16 -4 -16 -10z"/>
<path d="M4385 400 c3 -5 8 -10 11 -10 2 0 4 5 4 10 0 6 -5 10 -11 10 -5 0 -7
-4 -4 -10z"/>
<path d="M4562 370 c0 -14 2 -19 5 -12 2 6 2 18 0 25 -3 6 -5 1 -5 -13z"/>
<path d="M4082 361 c2 -7 7 -12 11 -12 12 1 9 15 -3 20 -7 2 -11 -2 -8 -8z"/>
<path d="M4480 360 c0 -6 7 -10 15 -10 8 0 15 2 15 4 0 2 -7 6 -15 10 -8 3
-15 1 -15 -4z"/>
<path d="M4352 348 c5 -15 28 -23 28 -10 0 5 -7 13 -16 16 -10 4 -14 1 -12 -6z"/>
<path d="M4610 335 c0 -8 5 -15 10 -15 6 0 10 7 10 15 0 8 -4 15 -10 15 -5 0
-10 -7 -10 -15z"/>
<path d="M4426 323 c-6 -14 -5 -15 5 -6 7 7 10 15 7 18 -3 3 -9 -2 -12 -12z"/>
<path d="M4477 314 c6 -15 23 -19 23 -5 0 5 -7 11 -14 14 -10 4 -13 1 -9 -9z"/>
<path d="M4577 324 c7 -3 9 -12 6 -21 -4 -11 -2 -14 5 -9 7 4 12 2 12 -5 0 -7
3 -10 6 -7 9 9 -15 48 -29 47 -9 0 -9 -2 0 -5z"/>
<path d="M4035 304 c-9 -9 -13 -19 -10 -22 3 -3 14 4 25 16 24 25 10 30 -15 6z"/>
<path d="M4129 307 c15 -19 41 -23 41 -7 0 6 -4 10 -9 10 -5 0 -18 3 -28 7
-16 6 -16 5 -4 -10z"/>
<path d="M4530 310 c0 -5 5 -10 10 -10 6 0 10 5 10 10 0 6 -4 10 -10 10 -5 0
-10 -4 -10 -10z"/>
<path d="M3977 289 c-9 -10 -17 -23 -17 -28 0 -5 -13 -11 -30 -14 -26 -6 -30
-11 -30 -38 0 -33 9 -35 14 -2 2 10 12 23 24 29 31 15 74 61 64 68 -5 3 -16
-4 -25 -15z"/>
<path d="M4255 291 c-3 -6 -1 -11 6 -11 7 0 9 -8 6 -21 -4 -17 -3 -18 9 -8 11
9 12 15 2 28 -7 9 -13 17 -14 19 -1 2 -5 -1 -9 -7z"/>
<path d="M4305 267 c3 -29 -1 -39 -17 -48 -26 -14 -17 -22 15 -14 19 5 24 12
23 33 -1 15 -7 36 -13 47 -10 17 -11 14 -8 -18z"/>
<path d="M4355 290 c3 -5 13 -10 21 -10 8 0 12 5 9 10 -3 6 -13 10 -21 10 -8
0 -12 -4 -9 -10z"/>
<path d="M4190 280 c0 -5 7 -7 15 -4 8 4 15 8 15 10 0 2 -7 4 -15 4 -8 0 -15
-4 -15 -10z"/>
<path d="M4100 269 c0 -5 5 -7 10 -4 6 3 10 8 10 11 0 2 -4 4 -10 4 -5 0 -10
-5 -10 -11z"/>
<path d="M4570 270 c0 -6 11 -20 25 -32 14 -12 23 -28 21 -35 -6 -15 3 -16 24
-3 12 8 13 12 1 19 -10 6 -10 13 -2 29 9 17 8 19 -9 15 -11 -3 -17 -9 -14 -14
3 -5 0 -9 -6 -9 -7 0 -14 9 -17 20 -5 20 -23 28 -23 10z"/>
<path d="M4130 248 l-25 -21 30 7 c36 9 41 14 29 25 -5 6 -19 1 -34 -11z"/>
<path d="M4195 249 c-10 -15 3 -25 16 -12 7 7 7 13 1 17 -6 3 -14 1 -17 -5z"/>
<path d="M4475 240 c-3 -6 1 -7 9 -4 18 7 21 14 7 14 -6 0 -13 -4 -16 -10z"/>
<path d="M4230 230 c0 -6 7 -10 15 -10 8 0 15 2 15 4 0 2 -7 6 -15 10 -8 3
-15 1 -15 -4z"/>
<path d="M4105 211 c-3 -5 -1 -12 5 -16 5 -3 10 1 10 9 0 18 -6 21 -15 7z"/>
<path d="M3995 200 c-3 -5 1 -10 10 -10 9 0 13 5 10 10 -3 6 -8 10 -10 10 -2
0 -7 -4 -10 -10z"/>
<path d="M4220 180 c-13 -11 -18 -20 -12 -20 6 0 18 8 28 17 16 16 16 16 10
-5 -5 -16 -3 -22 7 -22 17 0 17 24 1 40 -7 7 -18 4 -34 -10z"/>
<path d="M4289 190 c-7 -53 -7 -70 1 -70 6 0 10 6 10 14 0 8 6 16 13 19 9 3 7
10 -5 23 -10 10 -18 16 -19 14z"/>
<path d="M4486 175 c-17 -13 -18 -15 -3 -15 9 0 17 5 17 11 0 6 9 9 20 6 11
-3 20 -1 20 4 0 14 -33 10 -54 -6z"/>
<path d="M3870 163 c0 -5 9 -18 20 -28 11 -10 20 -14 20 -8 0 5 -9 18 -20 28
-11 10 -20 14 -20 8z"/>
<path d="M4074 163 c3 -6 0 -13 -6 -16 -7 -2 -11 -7 -8 -10 3 -3 12 -2 20 3
13 8 13 11 1 22 -8 8 -11 8 -7 1z"/>
<path d="M4585 160 c-3 -6 1 -7 9 -4 18 7 21 14 7 14 -6 0 -13 -4 -16 -10z"/>
<path d="M4106 125 c-3 -8 -1 -15 4 -15 6 0 10 7 10 15 0 8 -2 15 -4 15 -2 0
-6 -7 -10 -15z"/>
<path d="M4495 131 c-3 -6 -11 -9 -16 -6 -5 4 -9 2 -9 -3 0 -18 13 -21 27 -6
9 8 13 17 10 20 -3 3 -8 0 -12 -5z"/>
<path d="M3790 115 c0 -8 5 -15 10 -15 6 0 10 7 10 15 0 8 -4 15 -10 15 -5 0
-10 -7 -10 -15z"/>
<path d="M4230 120 c20 -13 33 -13 25 0 -3 6 -14 10 -23 10 -15 0 -15 -2 -2
-10z"/>
<path d="M4667 123 c-12 -12 -7 -22 8 -17 8 4 15 10 15 15 0 11 -14 12 -23 2z"/>
<path d="M4155 110 c-3 -5 0 -7 8 -4 9 3 19 -6 27 -25 7 -17 18 -31 24 -31 6
0 2 -7 -9 -16 -11 -8 -25 -12 -32 -10 -7 3 -13 0 -13 -7 0 -7 14 -14 30 -15
17 -1 30 3 30 9 0 6 6 9 14 6 8 -3 20 1 27 9 10 12 9 13 -5 8 -21 -8 -21 5 2
22 16 13 16 13 0 14 -10 0 -18 4 -18 10 0 10 -52 40 -69 40 -5 0 -13 -4 -16
-10z"/>
<path d="M4319 104 c0 -5 -2 -19 -5 -31 -3 -18 1 -23 17 -23 17 0 19 3 10 14
-9 11 -9 15 0 18 7 2 6 8 -5 17 -9 7 -16 10 -17 5z"/>
<path d="M4724 94 c3 -7 0 -15 -7 -17 -9 -3 -8 -10 2 -30 17 -32 31 -35 31 -7
0 14 5 18 17 13 13 -5 15 -2 10 11 -4 10 -7 21 -7 26 0 4 -12 10 -26 13 -18 3
-24 1 -20 -9z"/>
<path d="M4107 86 c-4 -10 -1 -13 8 -9 8 3 12 9 9 14 -7 12 -11 11 -17 -5z"/>
<path d="M4160 80 c0 -5 -7 -10 -15 -10 -12 0 -14 -7 -9 -26 7 -25 5 -27 -22
-20 -27 6 -28 5 -10 -8 17 -14 22 -13 47 7 29 23 36 37 19 37 -5 0 -7 7 -4 15
4 8 3 15 0 15 -3 0 -6 -4 -6 -10z"/>
<path d="M3765 69 c-4 -6 -5 -12 -2 -15 2 -3 7 2 10 11 7 17 1 20 -8 4z"/>
<path d="M3795 50 c-3 -5 -1 -10 4 -10 6 0 11 5 11 10 0 6 -2 10 -4 10 -3 0
-8 -4 -11 -10z"/>
<path d="M4430 50 c0 -5 7 -10 15 -10 8 0 15 5 15 10 0 6 -7 10 -15 10 -8 0
-15 -4 -15 -10z"/>
<path d="M4320 31 c0 -5 7 -15 17 -22 15 -13 15 -12 4 9 -12 23 -21 28 -21 13z"/>
<path d="M4790 24 c0 -8 6 -11 15 -8 8 4 15 1 15 -5 0 -6 5 -11 10 -11 17 0
-5 33 -24 36 -9 1 -16 -4 -16 -12z"/>
<path d="M3630 10 c-13 -8 -13 -10 2 -10 9 0 20 5 23 10 8 13 -5 13 -25 0z"/>
<path d="M4705 10 c3 -5 11 -10 16 -10 6 0 7 5 4 10 -3 6 -11 10 -16 10 -6 0
-7 -4 -4 -10z"/>
<path d="M4288 3 c7 -3 16 -2 19 1 4 3 -2 6 -13 5 -11 0 -14 -3 -6 -6z"/>
</g>
</svg>
